<svg xmlns="http://www.w3.org/2000/svg" viewBox="0 0 240.46 751.79"><g id="Warstwa_2" data-name="Warstwa 2"><g id="Layer_1" data-name="Layer 1"><path d="M64.39,219.19c-4.25,46-10.06,93.23-32.69,133.45-5.84,10.37-13,21.77-9.93,33.26,1,3.87,3.21,7.43,3.6,11.41.3,3-.46,6.06-1.1,9.05-3.61,16.93-1.65,30.8-5.15,34.8-4.5,1.5-5.15,2.27-10.84-4.92-2.44-3.09-4.92-6.26-6.13-10-1.39-4.34-.92-9-.45-13.56C5.83,373.5,10,334,21.79,296.45c3.1-9.9,6.72-19.65,9.17-29.73,8.33-34.25,2.78-70.47,8.76-105.2.9-5.26,2.28-10.86,6.29-14.38a23,23,0,0,1,6-3.51,114.66,114.66,0,0,1,17.3-6c10.2-2.66,21.15-4.09,29.66-10.31s15.45-20.18,8.33-28H147c-1.89,9.15,3.24,18.3,10.66,24,4.62,3.55,10.3,5.36,15.86,7.11l30.57,9.63c2.41.76,4.95,1.6,6.64,3.49s2.2,4.35,2.71,6.75c3.62,17,7.24,34.07,7.83,51.42.78,22.82-3.72,45.76-.86,68.42,1.07,8.5,3.16,16.83,5,25.19,8.79,40.42,11.2,81.92,13.59,123.21a25.81,25.81,0,0,1-.42,8.28c-.85,3.11-2.83,5.78-4.76,8.36-6.73,9-8.68,9.65-13.85,8.32-6.5-1.5-5.76-14-5.48-30.27.08-5.18.18-10.44,1.59-15.43,1.2-4.28,3.34-8.27,4.42-12.58,2.65-10.57-1.31-21.59-5.68-31.57-8.52-19.49-19-38.54-22.37-59.53-1.73-10.63-1.6-21.45-2-32.21a345.89,345.89,0,0,0-3.92-41.52" style="fill:#fff"/><path d="M63.14,219.19c-3.9,42-8.89,85.21-27.65,123.54-4.36,8.91-10.22,17.22-13.6,26.59a30.79,30.79,0,0,0-2,12.49c.33,4.79,2.72,8.76,3.83,13.33,1.44,5.93-1.1,12.53-1.92,18.46-.66,4.74-1,9.51-1.31,14.29-.28,4.23-.8,18.44-8.23,11.06-3.71-3.68-7.68-8.75-9.08-13.87-1.57-5.77-.2-12.27.41-18.1,1.18-11.07,2.38-22.14,3.79-33.18,2.92-22.86,6.73-45.68,13-67.89,5.86-20.9,13.58-40.6,15.7-62.38,2.17-22.29,1-44.75,3-67a121.17,121.17,0,0,1,2.77-19c2-7.79,6.76-11.21,13.94-14.11,10.83-4.37,22.41-5.77,33.34-9.69,8.14-2.92,15.11-7.78,19.31-15.49,3.46-6.34,4.65-13.87-.18-19.79l-.89,2.14H147L145.79,99a24.77,24.77,0,0,0,5.43,19.74c5.45,6.88,13.07,10.07,21.21,12.66,10.13,3.22,20.29,6.36,30.42,9.58,3.89,1.24,7.28,2.62,8.68,6.76A58.8,58.8,0,0,1,213,154.4c1.2,5.67,2.37,11.35,3.41,17a201,201,0,0,1,3.65,34.07c.12,10.81-.81,21.59-1.4,32.37s-.87,21.55.46,32.25c1.27,10.22,4,20.19,6,30.27,4.58,22.36,7.28,45.06,9.19,67.79.92,11,1.65,21.93,2.32,32.91q.48,7.74.92,15.49c.36,6.39-.08,11.28-3.94,16.65-3,4.11-11.58,15.34-16.38,6.36-3.53-6.62-1.75-17.4-1.62-24.58.1-5.37,0-10.83,1.37-16.06,1.24-4.9,3.76-9.36,4.83-14.3,2-9.23-.65-18.59-4.09-27.14-8.5-21.1-20.46-41-24.16-63.75-2-12.4-1.53-25-2.16-37.56a356.66,356.66,0,0,0-3.73-36.16c-.24-1.59-2.65-.91-2.41.66a352.22,352.22,0,0,1,3.64,35.5c.59,11.69.26,23.46,1.8,35.08,2.73,20.67,12.32,39.35,20.79,58.11,4.94,10.94,10.64,23.2,7.72,35.48-1.1,4.61-3.47,8.81-4.64,13.41-1.23,4.88-1.33,9.93-1.42,14.93-.16,8-1.19,16.92.89,24.78,1.15,4.32,3.73,6.94,8.32,7.22,6,.36,9.81-5.84,12.93-10.07,2.24-3,4.23-6.16,4.79-10,.83-5.58-.21-11.71-.54-17.31-1.39-23.56-3-47.12-5.91-70.55-1.38-11-3.06-22-5.16-32.85s-5.11-21.8-6.68-32.87c-3.29-23.23,1.46-46.6.66-69.9-.43-12.65-2.47-25.18-4.92-37.58-1.83-9.21-1.65-21.08-11.72-24.81-11.47-4.25-23.46-7.21-35.06-11.08-12.43-4.13-25-13.86-22.62-28.59a1.26,1.26,0,0,0-1.2-1.58H107.33a1.26,1.26,0,0,0-.88,2.13c7.19,8.79-1.73,21.85-9.45,26.94-8.83,5.83-19.78,6.94-29.76,9.72C59,139.17,47,142,42.19,149.8c-4.63,7.47-4.87,18.18-5.65,26.69-2.13,23.23-.76,46.64-3.34,69.84-2.65,23.9-12.25,45.85-18,69-5.5,22.32-8.84,45.11-11.54,67.91C2.33,394.7.47,406.31,0,417.81c-.36,9.09,4.25,17.18,10.83,23.3,2.67,2.49,7.11,3.41,9.73.18,1.33-1.64,1.54-4.45,1.79-6.43.56-4.35.66-8.75,1-13.12.87-10.64,5.22-21,1.32-31.31-2.19-5.83-3-11.09-1.42-17.24,1.51-5.74,4.48-11,7.38-16.17,23.9-42.45,30.53-90,35-137.83.15-1.6-2.35-1.59-2.5,0Z" style="fill:#c57974"/><path d="M66.33,219.82c5.59,22.49,11.19,46.24,4.87,68.54-2.65,9.35-7.29,18-10.9,27-6.3,15.73-9.43,32.51-12.53,49.17-3,16.25-6.06,32.64-5.71,49.17.46,22,6.9,43.41,11.52,64.94,4,18.58,6.66,37.57,5.7,56.55-1.47,29.25-11.5,57.85-10.28,87.1,1,25,10.21,48.84,14.6,73.45,1,5.51,4.36,22.7,3.87,24.1-3.7,10.5-18,11-26.63,21.07,6,8.71,20.51,11.53,29,8.35,5.09-1.9,4.44-10.67,8.43-15.09,1.9-2.11,11.21-7.76,11.43-15.21.31-10.29-2.54-20.41-3.24-30.67-1.7-25,9.27-49.17,10.34-74.18.61-14.14-2-28.34-.59-42.43,1.13-11.68,4.94-22.93,7-34.48,2.93-16.33,2.34-33.06,3.53-49.61,1.85-25.65,8-50.78,14.09-75.76.34-1.38,1.39-3.15,2.68-2.55.7.32.92,1.19,1.06,1.95l7.52,41.33c2.75,15.11,5.51,30.33,5.31,45.68-.16,12.35-2.23,24.63-2.15,37,.08,14.28,3,28.4,3.83,42.66,1.18,21.06-2.31,42.25-.18,63.24,2.06,20.41,9.42,40.41,8,60.88-.88,12.41,2.78,9.64,7.78,26.51,1.06,3.57-1.44,13.71,2.19,15.61,4,2.08,10.37,2.19,14.45,1.87a68.92,68.92,0,0,0,23.05-6.25c-1.46-4.79-8.2-5.59-11-7.57-14.34-10.21-13.72-14.41-15-26.59-.77-7.39.52-14.84,2.06-22.11,5.67-26.64,14.9-52.89,14.95-80.13,0-18.55-4.22-36.87-5-55.4-2-49.31,20.68-96.92,20.21-146.27-.29-30.8-9.57-60.68-15.79-90.85s-9.19-62.5,2.59-91" style="fill:#fff"/><path d="M65.12,220.15c4.63,18.62,9.39,38,7,57.26-2.32,18.89-13.32,35.46-18.4,53.66s-8.4,37.1-11,55.73a164.22,164.22,0,0,0,1.08,53.41c3.43,18.64,8.79,36.86,11.77,55.59a192.49,192.49,0,0,1,.34,59.51c-2.71,18-7,35.77-8,54-1.06,18.37,2.42,36.14,6.85,53.87,4.09,16.36,7.85,32.69,10.62,49.32.34,2.06,1.22,4.74.9,6.83-.55,3.69-4.68,6.57-7.6,8.34-6.52,4-13.46,6.62-18.7,12.41a1.29,1.29,0,0,0-.2,1.52c5.11,6.89,13.75,10.2,22.19,10.23,3.26,0,7.56-.29,10.18-2.45,2.85-2.35,3.46-6.47,4.65-9.75,2.79-7.74,12.4-10.44,14-19.07,1-5.2-.24-11.13-1-16.33-1.12-7.73-2.41-15.34-2.24-23.18.31-14.28,4.08-28.16,7-42.06a154.72,154.72,0,0,0,3.27-40.27c-.37-7.06-.92-14.14-.7-21.22.25-8,1.83-15.83,3.69-23.63a214.35,214.35,0,0,0,6-39.43c.76-15.27,1.07-30.45,3.28-45.61,2.09-14.33,5.21-28.48,8.56-42.55q1.23-5.16,2.49-10.32c.15-.6.54-5.23,2.25-4.35a26,26,0,0,1,.68,3.76l4.1,22.54c2.72,14.95,5.89,29.93,7.32,45.07,1.35,14.32-.28,28.27-1.16,42.55-.93,15.07,1.42,29.7,2.9,44.63,2.77,28.16-2.69,56.24,2.38,84.29,2.91,16.11,6.75,31.75,6,48.26-.41,8.84,4,14.61,6.78,22.74,1.74,5.12.61,9.57,1.31,14.78.47,3.48,1.9,5,5.22,6.09,11.53,3.62,25.58-.7,36.08-5.45a1.24,1.24,0,0,0,.57-1.41c-2-4.93-6.63-5.51-10.84-7.88-5.33-3-11.34-8.3-13.33-14.27-5.13-15.41-.07-32.86,3.65-48,4.31-17.52,9.19-35,10.95-53,1.88-19.17-1.54-37.85-3.45-56.85-3.77-37.32,6.8-72.89,13.95-109.11,3.41-17.25,5.91-34.79,5.33-52.41-.59-18.33-4.21-36.39-8.26-54.22-9.12-40.21-21-83.4-4.9-123.48.6-1.5-1.82-2.15-2.41-.67-24.92,61.84,14.59,125,13.11,187.55-.75,32-10.43,62.77-16.12,94-2.75,15.14-4.62,30.53-4.08,45.94.57,16.62,4.05,33,4.84,49.59s-2,33.16-5.79,49.38c-3.62,15.46-8.55,30.86-10.66,46.63-1.18,8.81-1.58,21.59,3.44,29.58,2.55,4.07,6.49,7.2,10.33,10a28.61,28.61,0,0,0,6,3.17,12.06,12.06,0,0,1,3.64,2c2.62,2.51-1,3-3.26,3.79-7.06,2.51-14.74,4.14-22.26,3.68-3.45-.21-8.21-.44-9.2-4.33-.64-2.53-.1-5.42-.07-8,.11-9.1-6.83-15.7-8-24.25-.9-6.57.35-13.44-.25-20.1a219.31,219.31,0,0,0-3.75-23.34,212.65,212.65,0,0,1-4.46-50.45c.62-16.8,1.33-33.27-.62-50-1-8.38-2.16-16.75-2.48-25.18-.35-8.79.5-17.53,1.23-26.28,2.74-32.87-5.34-65.09-11.19-97.24-.4-2.21-1.11-10.32-5.45-6.87-1.34,1.07-1.62,3.1-2,4.64-1.13,4.36-2.14,8.76-3.18,13.14a453.7,453.7,0,0,0-9.16,47.66c-2.08,16.54-1.74,33.18-3.17,49.76s-7.39,32.22-8.79,48.71,2,33.11,0,49.68c-2,16.12-7,31.7-9,47.81a94.93,94.93,0,0,0-.14,23.58c1,7.77,2.85,15.57,2.71,23.43-.11,6.92-4.78,10.63-9.59,14.81-3.27,2.83-4.25,6.42-5.62,10.38-1.21,3.5-2.64,5.63-6.36,6.47a25.27,25.27,0,0,1-9.65.08,28.07,28.07,0,0,1-8.82-3,17.49,17.49,0,0,1-3.86-2.67c-1.67-1.65-2.21-2.3-.31-4,6.87-6.11,21.26-8.66,24.19-18.51.77-2.62-.16-5.77-.59-8.41-.78-4.76-1.69-9.5-2.56-14.24C62.51,683,58.39,668.29,55,653.35c-3.79-16.44-5.69-32.79-4.14-49.64s5.51-33.64,7.9-50.51c4.57-32.28-1.06-62.85-8.36-94.24-3.9-16.74-7.44-33.69-7-51,.4-17,3.86-33.86,7-50.54s7.08-32.71,13.87-48.17c6.31-14.37,11.25-28,11-43.92-.25-15.58-4-30.85-7.7-45.89-.38-1.56-2.8-.9-2.41.67Z" style="fill:#c57974"/><path d="M53.44,331.37c21.52,14.25,48.7,15.95,74.48,17.21,10.58.52,21.21,1,31.75,0a105.83,105.83,0,0,0,30.05-7.63" style="fill:#fff"/><path d="M52.81,332.45c18.92,12.22,41.48,15.33,63.52,16.75,25.2,1.62,49.89,2.64,73.73-7.08,1.47-.6.82-3-.67-2.41-23.12,9.43-46.95,8.58-71.4,7.09-22.16-1.34-44.88-4.21-63.92-16.51-1.35-.88-2.61,1.28-1.26,2.16Z" style="fill:#c57974"/><path d="M49.45,350.55c11.38,8.89,25.37,13.8,37.31,21.92a92.87,92.87,0,0,1,25.52,26.65c1.5,2.33,2.94,4.76,5.06,6.55s5.12,2.82,7.71,1.85a11.65,11.65,0,0,0,4-3,443.47,443.47,0,0,1,58.39-49.41c2.14-1.52,5.17-3,7.16-1.29" style="fill:#fff"/><path d="M48.82,351.63c13.25,10.08,29.47,15.29,42.47,25.75a92.23,92.23,0,0,1,17.07,18.17c3.24,4.54,6,11.11,11.67,13.05s8.89-2.23,12.51-5.81q9.06-9,18.64-17.43T170.8,369q5.61-4.41,11.37-8.62c2.72-2,8.17-7.61,11.82-5.55a1.25,1.25,0,0,0,1.26-2.16c-5.12-2.88-10.46,2.71-14.34,5.55q-9.69,7.1-19,14.71T144,388.46q-4.71,4.31-9.3,8.74c-2.7,2.6-5.79,6.91-9.13,8.69-6.29,3.35-10.44-4.82-13.12-8.82q-2.67-4-5.69-7.74a91.91,91.91,0,0,0-15.26-15c-12.83-9.89-28.5-15.1-41.39-24.9-1.28-1-2.53,1.19-1.27,2.16Z" style="fill:#c57974"/><path d="M123.68,212.15c-5.28-9.22-11.25-18.37-19.77-24.71s-20.12-9.47-30-5.56a14.48,14.48,0,0,0-6.55,4.67c-2.57,3.52-2.67,8.24-2.35,12.59a92.73,92.73,0,0,0,2.61,16.06c1.07,4.19,2.57,8.52,5.83,11.35,2.47,2.13,5.67,3.18,8.78,4.17,3.72,1.18,7.61,2.39,11.47,1.78s7.4-3.09,10.87-5.15a61.54,61.54,0,0,1,15.83-6.65,18.14,18.14,0,0,1,6-.78c3.9.31,7.28,2.71,10.51,4.93,5.84,4,12,7.72,18.92,9.38s14.6,1,20.35-3.11c8-5.75,10.29-16.41,11.77-26.12.77-5.1,1.38-10.73-1.44-15.05-3.4-5.2-10.48-6.5-16.67-6a45.88,45.88,0,0,0-33,18.14c-3,4.08-5.63,8.9-10.22,11.09-1,.48-2.86,0-2.3-1" style="fill:#fff"/><path d="M124.76,211.52C118.37,200.44,110.82,189,99.1,183c-9-4.63-22.11-6.49-30.52.53-8.25,6.89-4.68,21.38-2.59,30.27,1.15,4.92,2.66,10.19,6.58,13.66s10.73,5.43,15.83,6.2c5.4.82,9.64-.9,14.2-3.62,6.56-3.9,14.42-8.58,22.3-8.86,7-.25,13.17,6.32,18.91,9.51,5.56,3.09,11.66,5.44,18.08,5.66,10.64.35,19.12-5.36,23.28-15.08,2.35-5.5,3.45-11.54,4.23-17.45.64-4.84,1-10.17-1.8-14.47-6.19-9.56-21.14-7.28-30.15-4a47.63,47.63,0,0,0-16.28,10,50.29,50.29,0,0,0-6.25,7.27c-.91,1.26-1.75,2.57-2.69,3.8-.48.63-6.61,6-6.6,5.71.05-1.61-2.45-1.61-2.5,0,0,1.79,1.32,2.47,3,2.36,3.36-.2,6.42-4.38,8.24-6.81,6.92-9.2,13.91-16.74,25.19-20.47,10.77-3.57,28-4,27.78,11.49-.14,9.8-2.74,23.31-10.36,30.11-10.23,9.13-24.8,4.13-35-2.16-4.14-2.56-8.06-6.13-12.83-7.49-4.46-1.27-9,.09-13.23,1.54a68.76,68.76,0,0,0-13.31,6.32c-6.37,3.83-11.18,5.12-18.48,3-6.76-2-11.86-4.68-14.31-11.67a73.92,73.92,0,0,1-3.59-19.21c-.51-7.78,1.5-14,9.48-16.59,6.35-2.05,13.22-1.16,19.31,1.33,12.88,5.25,20.86,17.31,27.55,28.9a1.25,1.25,0,0,0,2.16-1.26Z" style="fill:#c57974"/><path d="M183.89,187.36q.33-17.62.13-35.26c-.07-6.82-.39-14.18-4.6-19.55" style="fill:#fff"/><path d="M185.14,187.36q.29-16.16.16-32.32c-.07-8,0-16.32-4.8-23.12-.92-1.3-3.09-.06-2.16,1.26,5.28,7.45,4.44,17.1,4.49,25.78q.07,14.21-.19,28.4a1.25,1.25,0,0,0,2.5,0Z" style="fill:#c57974"/><path d="M68.2,185.66c.75-16.12-2.6-32.79,2.41-48.14" style="fill:#fff"/><path d="M69.45,185.66c.6-16-2.39-32.23,2.37-47.81.47-1.54-1.94-2.2-2.41-.66C64.58,153,67.56,169.46,67,185.66c-.06,1.61,2.44,1.61,2.5,0Z" style="fill:#c57974"/><path d="M138.88,125.67a81.28,81.28,0,0,1-4.65,17" style="fill:#fff"/><path d="M137.68,125.34a86.9,86.9,0,0,1-4.66,17c-.58,1.5,1.84,2.15,2.42.66a87.38,87.38,0,0,0,4.65-17c.26-1.57-2.14-2.25-2.41-.66Z" style="fill:#c57974"/><path d="M115.91,126.29a51.94,51.94,0,0,0,3.9,7.83" style="fill:#fff"/><path d="M114.71,126.62a56.86,56.86,0,0,0,4,8.13,1.25,1.25,0,0,0,2.16-1.26,52.94,52.94,0,0,1-3.77-7.53c-.6-1.48-3-.83-2.41.66Z" style="fill:#c57974"/><path d="M120.76,310.15h.5" style="fill:#fff"/><path d="M120.76,311.4h.5a1.25,1.25,0,0,0,0-2.5h-.5a1.25,1.25,0,0,0,0,2.5Z" style="fill:#c57974"/><path d="M74.92,714a20.37,20.37,0,0,1,6.71,1.8" style="fill:#fff"/><path d="M74.92,715.27A19.65,19.65,0,0,1,81,716.9c1.46.66,2.73-1.49,1.27-2.16a23.5,23.5,0,0,0-7.34-2c-1.6-.16-1.59,2.34,0,2.5Z" style="fill:#c57974"/><path d="M67.47,714.73a19.3,19.3,0,0,1,2.37-.53" style="fill:#fff"/><path d="M67.8,715.94a21.38,21.38,0,0,1,2.37-.54,1.24,1.24,0,0,0,.87-1.53,1.28,1.28,0,0,0-1.53-.88,21,21,0,0,0-2.38.54,1.25,1.25,0,0,0,.67,2.41Z" style="fill:#c57974"/><path d="M164,712.45c-.05-.85-1.15-1.16-2-1.19a23.72,23.72,0,0,0-5.18.39" style="fill:#fff"/><path d="M165.24,712.12c-.73-3.33-6.47-2.07-8.73-1.67-1.58.27-.91,2.68.66,2.41.62-.11,5.46-1,5.66-.07.34,1.57,2.75.9,2.41-.67Z" style="fill:#c57974"/><path d="M70,547.93a11.47,11.47,0,0,0,13.52-.72" style="fill:#fff"/><path d="M69.32,549a12.92,12.92,0,0,0,15-.91c1.26-1-.52-2.76-1.77-1.77a10.36,10.36,0,0,1-12,.52c-1.37-.86-2.62,1.3-1.26,2.16Z" style="fill:#c57974"/><path d="M145.18,548.85c2.65.19,5.15,1.25,7.75,1.81a20.79,20.79,0,0,0,11.19-.71" style="fill:#fff"/><path d="M145.18,550.1c3.48.43,6.73,1.88,10.24,2.18a23,23,0,0,0,9-1.12c1.53-.48.88-2.9-.66-2.41a20.59,20.59,0,0,1-10.53.7c-2.72-.56-5.3-1.51-8.08-1.85-1.59-.2-1.58,2.3,0,2.5Z" style="fill:#c57974"/><path d="M120.89,6.86a18.48,18.48,0,0,1,10.19-1.43" style="fill:#fff"/><path d="M121.52,7.94a18.29,18.29,0,0,1,9.56-1.26c1.59.19,1.58-2.31,0-2.5a20.6,20.6,0,0,0-10.82,1.6c-1.48.63-.21,2.78,1.26,2.16Z" style="fill:#c57974"/><path d="M111.28,8.15A86.78,86.78,0,0,0,101.12,19a57.47,57.47,0,0,0-11.7,35c0,2.23.25,4.66,1.79,6.26-1.57.8-1.39,3.07-1,4.79,1,4.38,2.32,9.15,6,11.76A8.7,8.7,0,0,1,98,78.22a6.4,6.4,0,0,1,1,2.6,51,51,0,0,0,9.81,20.24,18.07,18.07,0,0,0,4.17,4,17.32,17.32,0,0,0,5.76,2.13A42.79,42.79,0,0,0,137.7,107a14.54,14.54,0,0,0,7-3.36c2.57-2.56,3.26-6.39,4-9.94A31.31,31.31,0,0,1,152,84.13a13.22,13.22,0,0,1,7.66-6.28c1.32-.35,2.83-.5,3.7-1.55a4.89,4.89,0,0,0,.85-2.21c1.29-6,2.58-12.32,1.29-18.38a35.68,35.68,0,0,1-.87-4.33c-.13-1.64.16-3.29,0-4.93a19.3,19.3,0,0,0-1-4,108.31,108.31,0,0,1-4.49-19.62,28.61,28.61,0,0,0-1.38-6.75c-1.81-4.59-6.11-7.71-10.49-10a19.8,19.8,0,0,0-6.86-2.41,28.75,28.75,0,0,1-3.72-.37,23.59,23.59,0,0,1-2.9-1.09c-4.12-1.56-8.8-1.09-12.93.44a50.45,50.45,0,0,0-11.43,6.57" style="fill:#fff"/><path d="M110.39,7.26c-8.06,7.56-14.78,15.86-18.65,26.33a58.93,58.93,0,0,0-3.37,15.29,31.56,31.56,0,0,0,0,7.83c.19,1.13,1,2.71,1,3.56,0,1.17-.74,2.29-.62,3.7a25.7,25.7,0,0,0,1.31,5.39,20.79,20.79,0,0,0,2.35,5.22c1.63,2.44,4.2,3.71,5.38,6.57,3.58,8.7,5.91,19.53,14.56,25,7.54,4.77,20.82,4.32,28.82,1,10.89-4.46,6.7-18.36,14.39-25.61,2.94-2.76,7.78-2.1,9.53-6,2.2-4.9,2.6-12.81,1.94-18.06-.33-2.66-1.12-5.08-1.2-7.79a24.77,24.77,0,0,0-.64-6.32c-1.72-6.39-3.67-12.56-4.66-19.13-.84-5.56-1.46-10.39-5.7-14.46A28.84,28.84,0,0,0,142.13,2.7C138.9,2,135.72,1.31,132.5.51a18.77,18.77,0,0,0-7.2-.3c-6.22.89-11.52,4.39-16.55,7.92-1.3.92-.06,3.08,1.26,2.16,6.59-4.62,14.22-9.52,22.61-7.13,7.29,2.09,14.68,2.85,20.46,8.43s5.07,15.06,6.8,22.36c.82,3.43,2,6.73,2.92,10.13.84,3.24.33,6.54,1,9.81a36.59,36.59,0,0,1,.54,12.69,28.86,28.86,0,0,1-1.14,6.27c-1.13,2.84-2.72,3.24-5.24,4.27-4.78,2-7.65,6.57-9.21,11.3-1,3.12-1.36,6.41-2.36,9.53-1.76,5.52-6.23,7.44-11.56,8.34-7.91,1.33-18.37,1.33-24.17-5a43.83,43.83,0,0,1-7.12-11.17c-1.65-3.59-2.15-7.61-3.73-11.15-1.2-2.68-4-3.74-5.55-6.22-1.33-2.13-4.59-9.51-2.15-11.61a1.24,1.24,0,0,0,.19-1.51c-2.91-3.94-1.59-11-.8-15.49a56.48,56.48,0,0,1,3.9-12.9C99.2,22.5,105.26,15.5,112.16,9c1.18-1.1-.59-2.87-1.77-1.77Z" style="fill:#c57974"/><path d="M140.33,3.63c1.19,4.09,1.86,9.48-1.76,11.73-3,1.89-7,.17-10.48.63-2.82.38-5.23,2.14-7.51,3.85l-9.25,6.93c-9.17,6.86-18.89,14.53-22,25.57" style="fill:#fff"/><path d="M139.12,4A19.13,19.13,0,0,1,140,8.88c0,4.13-1.88,5.65-5.72,6.13-2.79.34-5.36-.72-8.18.16-6.24,1.94-12.09,8-17.21,11.88-8.79,6.67-17.38,14.06-20.72,25a1.25,1.25,0,0,0,2.41.67c4.47-14.57,19.59-23.85,31.31-32.26,4.43-3.18,7.44-2.88,12.39-2.9a8.42,8.42,0,0,0,5.64-1.64c3.68-3,2.68-8.55,1.6-12.58a1.25,1.25,0,0,0-2.41.67Z" style="fill:#c57974"/><path d="M140.19,13.66a20.43,20.43,0,0,0,4.06,9.54c2.55,3.26,6.05,5.69,8.54,9,4.71,6.24,5.4,15,10.73,20.7" style="fill:#fff"/><path d="M139,14c1.6,8.74,7.76,12.32,12.75,19,4.79,6.36,5.64,14.69,10.9,20.82,1.05,1.22,2.81-.55,1.77-1.77-5-5.78-5.82-13.67-10.12-19.84-4.69-6.74-11.29-10-12.89-18.83-.29-1.58-2.7-.91-2.41.66Z" style="fill:#c57974"/><path d="M146.22,14.23a38.81,38.81,0,0,0,6.53,8.45" style="fill:#fff"/><path d="M145.14,14.86a42.39,42.39,0,0,0,6.72,8.7,1.25,1.25,0,0,0,1.77-1.77,39.67,39.67,0,0,1-6.33-8.19,1.25,1.25,0,0,0-2.16,1.26Z" style="fill:#c57974"/><path d="M108.18,21.8a33.67,33.67,0,0,1,20.35-11" style="fill:#fff"/><path d="M109.06,22.68a33.68,33.68,0,0,1,19.8-10.63c1.58-.26.91-2.67-.66-2.41a35.74,35.74,0,0,0-20.91,11.28c-1.08,1.18.68,2.95,1.77,1.76Z" style="fill:#c57974"/></g></g></svg>