<svg xmlns="http://www.w3.org/2000/svg" viewBox="0 0 209.73 209.73">
  <title>clock</title>
  <g data-name="Warstwa 2">
    <g data-name="Layer 1">
      <path style="fill:#696868" d="M103.45,122a7.25,7.25,0,0,1-7.25-7.25V43.4a7.25,7.25,0,1,1,14.5,0v71.39A7.26,7.26,0,0,1,103.45,122Z"  />
      <path style="fill:#4a494a" d="M156,122H103.45a7.25,7.25,0,0,1,0-14.5H156a7.25,7.25,0,0,1,0,14.5Z"  />
      <path style="fill:#696868" d="M104.87,209.73A104.87,104.87,0,1,1,209.73,104.87,105,105,0,0,1,104.87,209.73Zm0-195.23a90.37,90.37,0,1,0,90.36,90.37A90.47,90.47,0,0,0,104.87,14.5Z"  />
    </g>
  </g>
</svg>