<svg xmlns="http://www.w3.org/2000/svg" viewBox="0 0 268.62 353.02"><g data-name="Warstwa 2"><g data-name="Layer 1"><path d="M134.72,0c-18.2,0-33,15-33,33.48S116.52,67,134.72,67s33-15,33-33.49S152.92,0,134.72,0Zm0,53.58a20.1,20.1,0,1,1,19.8-20.1A20,20,0,0,1,134.72,53.58Z"/><path d="M208.73,117.69v69.78h-12V117.69c0-13-2.73-22.62-7.9-27.71-4.91-4.85-11.12-4.77-13.77-4.73h-74c-7.92,0-14.35,2.41-19.12,7.15-6.69,6.65-10.09,17.76-10.09,33v62h-12v-62c0-18.59,4.59-32.57,13.63-41.55C80.67,76.76,90,73.17,101.4,73.26h73.49c3.43,0,13.88-.19,22.37,8.18C204.87,88.94,208.73,101.14,208.73,117.69Z"/><path d="M180.41,220.47h0v-.11A.41.41,0,0,0,180.41,220.47Z"/><path d="M101.06,187.47h-12V122.69a6,6,0,0,1,12,0Z"/><path d="M180.4,122.69v64.78h-12V122.69a6,6,0,0,1,12,0Z"/><path d="M168.4,237.47h12V339a14,14,0,0,1-14,14H103.06a14,14,0,0,1-14-14V237.47h12V339a2,2,0,0,0,2,2H166.4a2,2,0,0,0,2-2Z"/><path d="M128.68,237.47h12V346.69a6,6,0,0,1-12,0Z"/><circle cx="167.73" cy="103.69" r="6.67"/><circle cx="79.06" cy="135.02" r="6.67"/><circle cx="134.31" cy="166.77" r="6.67"/><path d="M268.62,186.39v49.34a8,8,0,1,1-16,0V220.47H180.41a.41.41,0,0,1,0-.11v.11H16v17.26a8,8,0,0,1-16,0V188.56a8,8,0,0,1,16,0v15.91H252.62V186.39a8,8,0,0,1,16,0Z"/><path d="M180.41,220.47h0v-.11A.41.41,0,0,0,180.41,220.47Z"/></g></g></svg>