<svg xmlns="http://www.w3.org/2000/svg" viewBox="0 0 240.41 747.47">
  <g data-name="Warstwa 2">
    <g data-name="Layer 1">
      <path style="fill:#536C4E;" d="M110.43,7.26c-8.06,7.56-14.79,15.86-18.65,26.33A59,59,0,0,0,88.4,48.88a31.56,31.56,0,0,0,0,7.83c.19,1.13,1,2.71,1,3.56,0,1.17-.75,2.29-.62,3.7a25.7,25.7,0,0,0,1.31,5.39,20.76,20.76,0,0,0,2.34,5.22c1.64,2.44,4.21,3.71,5.39,6.57,3.58,8.7,5.91,19.53,14.56,25,7.54,4.77,20.82,4.32,28.82,1,10.88-4.46,6.7-18.36,14.39-25.61,2.93-2.76,7.78-2.1,9.53-6,2.2-4.9,2.6-12.81,1.94-18.06-.33-2.66-1.12-5.08-1.21-7.79a24.76,24.76,0,0,0-.63-6.32c-1.72-6.39-3.67-12.56-4.66-19.13-.84-5.56-1.46-10.39-5.71-14.46A28.86,28.86,0,0,0,142.17,2.7c-3.23-.75-6.41-1.39-9.63-2.19a18.82,18.82,0,0,0-7.21-.3c-6.21.89-11.51,4.39-16.54,7.92-1.31.92-.06,3.08,1.26,2.16,6.59-4.62,14.22-9.52,22.61-7.13C140,5.25,147.34,6,153.12,11.59s5.06,15.06,6.8,22.36c.81,3.43,2,6.73,2.92,10.13.83,3.24.33,6.54,1,9.81a36.35,36.35,0,0,1,.54,12.69,28.85,28.85,0,0,1-1.13,6.27c-1.14,2.84-2.73,3.24-5.24,4.27-4.79,2-7.65,6.57-9.21,11.3-1,3.12-1.36,6.41-2.36,9.53-1.76,5.52-6.23,7.44-11.57,8.34-7.9,1.33-18.37,1.33-24.16-5a43.29,43.29,0,0,1-7.12-11.17c-1.65-3.59-2.15-7.61-3.74-11.15-1.19-2.68-4-3.74-5.55-6.22C93,70.62,89.7,63.24,92.13,61.14a1.24,1.24,0,0,0,.2-1.51c-2.92-3.94-1.6-11-.81-15.49a57,57,0,0,1,3.9-12.9C99.24,22.5,105.29,15.5,112.2,9c1.17-1.1-.6-2.87-1.77-1.77Z" />
      <path style="fill:#536C4E;" d="M104.07,100.8c8.16,9.84-.52,23-9.87,28-10.42,5.57-22.86,6.39-33.93,10.25-8.8,3.06-17.12,6.17-20.22,15.66-3.38,10.35-3.71,22.29-4.27,33.06-1.31,25.59.2,51.6-5.55,76.76-2.67,11.66-7,22.86-10.45,34.3a364.33,364.33,0,0,0-8.8,36c-4.75,24.46-7.47,49.25-10.09,74-.5,4.73-1.31,9.62-.63,14.37.74,5.15,3.52,9.2,6.65,13.21,2,2.54,4,5.06,6,7.59,1.66,2.1,3.27,5.37,6,6.29,8.08,2.75,5.41-22.13,5.4-25.42,0-3.66,0-7.33.3-11,.32-4.41,1.57-8.62,2-13,.58-5.71-2.25-10.05-3.57-15.38-1.71-6.91.27-13.77,3.19-20.05,5.21-11.18,11.88-21.49,16.61-32.94a242.71,242.71,0,0,0,11.63-36.49c6-25.24,8.84-51.11,11.24-76.9.15-1.6-2.35-1.59-2.5,0C59,264,53.51,310.39,31.51,350.48c-4.59,8.35-10.26,16.76-11.46,26.43a26.91,26.91,0,0,0,2,13.38c1.1,2.88,2.24,5.7,2.21,8.84s-1.09,6.31-1.57,9.45c-1.07,7-.91,14.17-.85,21.24,0,3.33.09,6.67,0,10-.05,1.54.29,6.92-1.19,7.9C18.7,449,8.6,434.67,7.33,432.93c-7.62-10.44-4-23.48-2.72-35.43,2.64-24.2,5.66-48.41,10.9-72.21A357,357,0,0,1,25,290.68c3.55-10.83,7.15-21.6,9.12-32.85,4.05-23.12,3-46.69,4.16-70,.36-6.85.9-13.7,1.84-20.51.84-6,1.48-13.55,5.78-18.25,4.74-5.17,13.74-7.31,20.28-9.24,5.46-1.62,11.07-2.68,16.57-4.14,9.39-2.49,19-6.39,23.93-15.28,3.83-6.86,4.34-15.08-.84-21.33-1-1.24-2.79.53-1.77,1.76Z" />
      <path style="fill:#536C4E;" d="M147.21,98.07a27.35,27.35,0,0,0,5.23,21.75c5.19,6.62,13,9.35,20.78,11.82,10.63,3.37,21.59,6.19,32,10.1,7.15,2.68,7.27,9.95,8.62,16.44,1.18,5.67,2.32,11.36,3.29,17.07a193,193,0,0,1,2.93,36.94c-.27,11.43-1.38,22.83-1.74,34.26a147.5,147.5,0,0,0,2.2,32.17c2.1,11.11,4.88,22.07,6.85,33.2,4.15,23.44,6.45,47.16,8.13,70.89.83,11.61,1.52,23.24,2.18,34.86.34,6.09-.38,10.62-4,15.68a102,102,0,0,1-9.82,11.84c-1.21,1.25-7.37,8.45-9.18,7.69-2.13-.9-1.59-6.63-1.56-8.35.16-7.93,1.49-15.82,2.16-23.71.86-10,.56-19.31,4.24-28.87s3.63-18.48.49-28.26c-7.3-22.68-21-42.67-25.75-66.32-2.57-12.89-2.11-26.09-2.7-39.15a359.6,359.6,0,0,0-3.82-38.06c-.24-1.59-2.65-.91-2.41.66a355.27,355.27,0,0,1,3.73,37.4c.52,11.48.23,23,1.87,34.45,3.18,22,14.05,41.61,22.79,61.71,5.36,12.32,8.41,24,3.39,36.91-3.66,9.42-3.45,18.33-4.22,28.22-.64,8.16-2,16.29-2.26,24.48-.09,3.23-.57,9.64,3.21,11.23,1.84.78,2.9-.09,4.27-1.24a96,96,0,0,0,9.74-9.39c5.75-6.39,12.4-13.58,12.51-22.61.14-12-1.34-24.29-2.16-36.26-.85-12.26-1.84-24.51-3.16-36.73-2.55-23.7-7.43-46.67-12-70-4.67-24.12-.37-48.12-.49-72.39-.06-13.29-1.95-26.45-4.45-39.48-1.22-6.38-2.26-12.94-4-19.19a11.13,11.13,0,0,0-6.82-7.93c-11.62-5-24.51-7.62-36.5-11.62-6.57-2.18-13-5-17.13-10.87a24.84,24.84,0,0,1-4.1-18.65c.27-1.57-2.14-2.25-2.41-.66Z" />
      <path style="fill:#536C4E;" d="M65.16,220.15c4.48,18,9.06,36.68,7.21,55.42-1.82,18.49-12.28,34.35-17.56,51.89s-8.34,35.72-11.21,53.67c-2.76,17.26-3.62,34.32-1,51.65,2.7,18.1,7.91,35.7,11.36,53.65,3.57,18.53,5.38,37.39,3.59,56.22-1.72,18-6.05,35.69-8.35,53.65a153.55,153.55,0,0,0,2,51.31c2.09,10.12,4.82,20.09,7.28,30.12,2,8.27,4.37,16.66,4.35,25.22,0,6.17.16,12.48-2.91,18C55.4,729,47.64,734.61,40.25,739.85a1.25,1.25,0,0,0,.63,2.32c8,.42,15.51,4.23,23.66,3.25,8.57-1,18.82-4.69,23.25-12.54,5.1-9.06,3.23-20.73,1.78-30.49-2.1-14-2.33-26.92.25-40.94,2.3-12.46,5.69-24.72,7.35-37.3,1.82-13.7.16-27.19-.06-40.91-.23-14.23,3.53-27.38,6.45-41.15,2.75-12.91,3.25-26,3.73-39.18,1-28.38,6.29-55.7,13-83.24.37-1.5,1.21-8.58,3.16-8.1.48.12,1.58,8.66,1.71,9.4l3.76,20.66c2.61,14.33,5.6,28.68,6.81,43.22,1.13,13.66-.5,27-1.33,40.64-.87,14.07,1.06,27.78,2.58,41.72,2.94,26.89-2.36,53.95,1.62,80.74,2.27,15.25,6.72,30.22,7.23,45.71.33,9.78-1.43,19.24.52,29,1.89,9.42,3.58,21.95,14.62,24.15,11.38,2.27,23.76-1.26,34.07-5.93a1.25,1.25,0,0,0,.58-1.41c-2-4.93-6.63-5.51-10.85-7.88-5.32-3-11.33-8.3-13.32-14.27-5.13-15.41-.07-32.86,3.64-48,4.32-17.52,9.19-35,11-53,1.88-19.17-1.54-37.85-3.46-56.85-3.76-37.32,6.81-72.89,14-109.11,3.4-17.25,5.9-34.79,5.33-52.41-.6-18.33-4.21-36.39-8.26-54.22-9.13-40.21-21.06-83.4-4.91-123.48.6-1.5-1.81-2.15-2.41-.67-16.43,40.8-4.13,84.84,5.12,125.73,5.13,22.71,9.17,45.65,7.68,69-1.41,22.19-6.72,43.88-11.46,65.54-4.5,20.61-8.64,41.53-8.52,62.72.13,23.17,6.35,45.9,4.81,69.13-1.51,22.83-8.59,44.76-13.62,66.94-2.32,10.28-3.82,20-2.76,30.52.54,5.31,1.3,10.33,4.62,14.69,4.21,5.54,9.94,9.08,16.11,11.93,1.17.55,4.61,1.88,4,3.62-.39,1-7.21,2.67-8.59,3.07a57.13,57.13,0,0,1-16.05,2.44c-6.23,0-12.08-1.19-14.65-7.58a89.65,89.65,0,0,1-3.8-13.51c-1.55-6.86-1.52-13.47-1.06-20.44,1.52-22.83-6.82-44.41-8.26-67-1.47-23.08,2.17-46.06-.36-69.15-1.3-11.94-3.17-23.83-2.85-35.87.3-11.7,2.15-23.3,2.12-35-.06-22.4-5.48-44.7-9.47-66.64-1-5.63-1.94-11.29-3.08-16.9-.39-1.92-.73-5.22-3.52-4.8-2.42.37-2.94,3.54-3.43,5.39-1.49,5.59-2.74,11.26-4.06,16.9C110,452.33,106,474.5,105,497.16c-.53,12.31-.6,24.69-2.49,36.89-1.71,11-5.22,21.69-6.9,32.72-1.71,11.27-.73,22.53-.19,33.84a141.55,141.55,0,0,1-2.72,35c-4.15,20.87-9.5,40.65-6.38,62.08,1.5,10.28,4.61,22.88-.1,32.79-4,8.55-16.57,13-25.66,12.66-6.7-.23-13-3.09-19.69-3.44l.63,2.33c9.07-6.41,21.67-15,23.16-27.07,1.72-13.79-1-26.32-4.26-39.69-4.62-18.64-10-37.32-10.22-56.67s4.13-38.14,7.27-57c3-18.24,4.15-36.33,2.11-54.76-2-18.07-6.46-35.65-10.46-53.35-4.32-19.15-7-38.14-5-57.77a423.88,423.88,0,0,1,10.37-57.54A180.3,180.3,0,0,1,65,307.62c4-9.09,7.9-18.13,9.37-28,3-20.22-2-40.58-6.81-60.1a1.25,1.25,0,0,0-2.41.67Z" />
      <path style="fill:#536C4E;" d="M52.85,332.45c18.91,12.22,41.47,15.33,63.52,16.75,25.19,1.62,49.89,2.64,73.72-7.08,1.47-.6.83-3-.66-2.41-23.13,9.43-47,8.58-71.4,7.09-22.16-1.34-44.88-4.21-63.92-16.51-1.36-.88-2.61,1.28-1.26,2.16Z" />
      <path style="fill:#536C4E;" d="M48.86,351.63c13.25,10.08,29.47,15.29,42.47,25.75a92.18,92.18,0,0,1,17.06,18.17c3.25,4.54,6,11.11,11.68,13.05s8.89-2.23,12.5-5.81q9.08-9,18.65-17.43T170.83,369q5.63-4.41,11.37-8.62c2.73-2,8.17-7.61,11.82-5.55a1.25,1.25,0,0,0,1.26-2.16c-5.11-2.88-10.46,2.71-14.34,5.55q-9.69,7.1-19,14.71T144,388.46q-4.71,4.31-9.31,8.74c-2.69,2.6-5.78,6.91-9.12,8.69-6.29,3.35-10.45-4.82-13.12-8.82q-2.67-4-5.7-7.74a91.47,91.47,0,0,0-15.25-15c-12.84-9.89-28.51-15.1-41.4-24.9-1.28-1-2.53,1.19-1.26,2.16Z" />
      <path style="fill:#536C4E;" d="M124.8,211.52c-6.39-11.08-14-22.55-25.66-28.55-9-4.63-22.12-6.49-30.52.53s-4.68,21.38-2.6,30.27c1.16,4.92,2.67,10.19,6.59,13.66s10.72,5.43,15.83,6.2c5.4.82,9.63-.9,14.19-3.62,6.57-3.9,14.43-8.58,22.3-8.86,7-.25,13.18,6.32,18.91,9.51,5.57,3.09,11.66,5.44,18.08,5.66,10.65.35,19.13-5.36,23.28-15.08,2.36-5.5,3.45-11.54,4.23-17.45.64-4.84,1-10.17-1.79-14.47-6.2-9.56-21.15-7.28-30.15-4a47.77,47.77,0,0,0-16.29,10,51.56,51.56,0,0,0-6.25,7.27c-.9,1.26-1.74,2.57-2.68,3.8-.49.63-6.61,6-6.6,5.71,0-1.61-2.45-1.61-2.5,0-.06,1.79,1.31,2.47,3,2.36,3.37-.2,6.42-4.38,8.25-6.81,6.91-9.2,13.9-16.74,25.18-20.47,10.78-3.57,28-4,27.78,11.49-.14,9.8-2.73,23.31-10.35,30.11-10.24,9.13-24.8,4.13-35-2.16-4.15-2.56-8.07-6.13-12.83-7.49-4.47-1.27-9,.09-13.24,1.54a69.32,69.32,0,0,0-13.31,6.32c-6.36,3.83-11.17,5.12-18.47,3-6.76-2-11.86-4.68-14.31-11.67a73.5,73.5,0,0,1-3.59-19.21c-.51-7.78,1.5-14,9.47-16.59,6.36-2.05,13.23-1.16,19.31,1.33,12.89,5.25,20.87,17.31,27.56,28.9a1.25,1.25,0,0,0,2.16-1.26Z" />
      <path style="fill:#536C4E;" d="M185.18,187.36q.28-16.16.16-32.32c-.07-8,0-16.32-4.8-23.12-.92-1.3-3.09-.06-2.16,1.26,5.28,7.45,4.44,17.1,4.48,25.78q.09,14.21-.18,28.4a1.25,1.25,0,0,0,2.5,0Z" />
      <path style="fill:#536C4E;" d="M69.49,185.66c.59-16-2.4-32.23,2.36-47.81.47-1.54-1.94-2.2-2.41-.66C64.61,153,67.59,169.46,67,185.66c-.07,1.61,2.44,1.61,2.5,0Z" />
      <path style="fill:#536C4E;" d="M137.71,125.34a86.87,86.87,0,0,1-4.65,17c-.58,1.5,1.84,2.15,2.41.66a86.71,86.71,0,0,0,4.66-17c.26-1.57-2.15-2.25-2.42-.66Z" />
      <path style="fill:#536C4E;" d="M114.74,126.62a56.92,56.92,0,0,0,4,8.13,1.25,1.25,0,0,0,2.16-1.26,54.07,54.07,0,0,1-3.78-7.53c-.59-1.48-3-.83-2.41.66Z" />
      <path style="fill:#536C4E;" d="M120.8,311.4h.5a1.25,1.25,0,0,0,0-2.5h-.5a1.25,1.25,0,0,0,0,2.5Z" />
      <path style="fill:#536C4E;" d="M67.84,715.94a19.76,19.76,0,0,1,13.19,1c1.46.64,2.73-1.51,1.26-2.16a22.5,22.5,0,0,0-15.12-1.21,1.25,1.25,0,0,0,.67,2.41Z" />
      <path style="fill:#536C4E;" d="M165.27,712.12c-.73-3.33-6.46-2.07-8.72-1.67-1.59.27-.92,2.68.66,2.41.62-.11,5.46-1,5.65-.07.35,1.57,2.76.9,2.41-.67Z" />
      <path style="fill:#536C4E;" d="M162.74,742.06a3.88,3.88,0,0,1,6.75-2.84c1.12,1.15,2.89-.62,1.77-1.77a6.39,6.39,0,0,0-11,4.61,1.25,1.25,0,0,0,2.5,0Z" />
      <path style="fill:#536C4E;" d="M174.7,742.67a2.23,2.23,0,0,1,2.57-2.18,1.26,1.26,0,0,0,1.25-1.25,1.28,1.28,0,0,0-1.25-1.25,4.72,4.72,0,0,0-5.07,4.68,1.25,1.25,0,0,0,2.5,0Z" />
      <path style="fill:#536C4E;" d="M183.31,739.18q-.13-.15-.09-.06a.13.13,0,0,1,0,.08c-.21-.07.09-.18,0,0s-.08.22-.26.18a1.28,1.28,0,0,0,1.54-.87,1.27,1.27,0,0,0-.88-1.54,2.39,2.39,0,0,0-2.64,1.14,2.32,2.32,0,0,0,.56,2.82,1.28,1.28,0,0,0,1.76,0,1.25,1.25,0,0,0,0-1.77Z" />
      <path style="fill:#536C4E;" d="M72,737.3a5.66,5.66,0,0,0-7.25-.07c-1.27,1,.51,2.75,1.76,1.77a3.09,3.09,0,0,1,3.72.07c1.23,1,3-.74,1.77-1.77Z" />
      <path style="fill:#536C4E;" d="M57,739.37a2.62,2.62,0,0,0-2.32-2.67c-1.6-.23-2.76,1-4.26,1a1.25,1.25,0,0,0,0,2.5,5.36,5.36,0,0,0,2.19-.51c.19-.08,1.92-.94,1.89-.34-.07,1.61,2.43,1.61,2.5,0Z" />
      <path style="fill:#536C4E;" d="M69.35,549a12.94,12.94,0,0,0,15-.91c1.26-1-.52-2.76-1.77-1.77a10.36,10.36,0,0,1-12,.52c-1.37-.86-2.63,1.3-1.27,2.16Z" />
      <path style="fill:#536C4E;" d="M145.21,550.1c3.49.43,6.74,1.88,10.25,2.18a23,23,0,0,0,9-1.12c1.53-.48.88-2.9-.66-2.41a20.6,20.6,0,0,1-10.53.7c-2.73-.56-5.31-1.51-8.09-1.85-1.59-.2-1.57,2.3,0,2.5Z" />
      <path style="fill:#536C4E;" d="M139.16,4a19.57,19.57,0,0,1,.89,4.92c0,4.13-1.89,5.65-5.73,6.13-2.78.34-5.36-.72-8.17.16-6.25,1.94-12.1,8-17.22,11.88-8.78,6.67-17.38,14.06-20.72,25a1.25,1.25,0,0,0,2.41.67c4.47-14.57,19.6-23.85,31.32-32.26,4.43-3.18,7.43-2.88,12.38-2.9A8.43,8.43,0,0,0,140,15.87c3.68-3,2.67-8.55,1.6-12.58a1.25,1.25,0,0,0-2.41.67Z" />
      <path style="fill:#536C4E;" d="M139,14c1.6,8.74,7.77,12.32,12.76,19,4.78,6.36,5.63,14.69,10.89,20.82,1.05,1.22,2.81-.55,1.77-1.77-5-5.78-5.81-13.67-10.11-19.84-4.7-6.74-11.29-10-12.9-18.83-.29-1.58-2.7-.91-2.41.66Z" />
      <path style="fill:#536C4E;" d="M145.18,14.86a42,42,0,0,0,6.72,8.7,1.25,1.25,0,0,0,1.77-1.77,39.33,39.33,0,0,1-6.33-8.19,1.25,1.25,0,0,0-2.16,1.26Z" />
      <path style="fill:#536C4E;" d="M109.1,22.68a33.68,33.68,0,0,1,19.8-10.63c1.58-.26.91-2.67-.67-2.41a35.75,35.75,0,0,0-20.9,11.28c-1.09,1.18.68,2.95,1.77,1.76Z" />
      <path style="fill:#536C4E;" d="M121.55,7.94a18.34,18.34,0,0,1,9.57-1.26c1.59.19,1.57-2.31,0-2.5a20.63,20.63,0,0,0-10.83,1.6c-1.47.63-.2,2.78,1.26,2.16Z" />
    </g>
  </g>
</svg>