<svg xmlns="http://www.w3.org/2000/svg" viewBox="0 0 374.31 207.92">
  <g data-name="Warstwa 2">
    <g data-name="Layer 1">
      <path style="fill:#fff;" d="M116.5,100.94C50.08,100.94,0,79.24,0,50.47S50.08,0,116.5,0,233,21.7,233,50.47,182.91,100.94,116.5,100.94Zm0-86.44c-28.29,0-54.78,4.32-74.59,12.15C24.75,33.44,14.5,42.35,14.5,50.47s10.25,17,27.41,23.82c19.81,7.84,46.3,12.15,74.59,12.15s54.77-4.31,74.58-12.15c17.16-6.79,27.41-15.7,27.41-23.82s-10.25-17-27.41-23.82C171.27,18.82,144.79,14.5,116.5,14.5Z" />
      <path style="fill:#fff;" d="M367.06,207.92H124.33c-55.57,0-93.46-10-112.62-29.59C.4,166.73,0,155.84,0,154.06V53.33a7.25,7.25,0,0,1,14.5,0v100.8c.06,1.08,3.18,39.29,109.83,39.29H359.81V100.94H120.3a7.25,7.25,0,0,1,0-14.5H367.06a7.26,7.26,0,0,1,7.25,7.25v107A7.26,7.26,0,0,1,367.06,207.92Z" />
      <path style="fill:#fff;" d="M116.5,72.85c-21.91,0-45.49-7-45.49-22.38S94.59,28.09,116.5,28.09,162,35.1,162,50.47,138.4,72.85,116.5,72.85ZM85.63,50.47c1.69,2.5,12.24,7.88,30.87,7.88s29.17-5.38,30.86-7.88c-1.69-2.5-12.23-7.88-30.86-7.88S87.32,48,85.63,50.47Zm61.9.31h0Z" />
      <path style="fill:#fff;" d="M319.59,207.92a7.25,7.25,0,0,1-7.25-7.25V173.8a7.25,7.25,0,0,1,14.5,0v26.87A7.26,7.26,0,0,1,319.59,207.92Z" />
      <path style="fill:#fff;" d="M232.71,207.92a7.25,7.25,0,0,1-7.25-7.25V173.8a7.25,7.25,0,0,1,14.5,0v26.87A7.26,7.26,0,0,1,232.71,207.92Z" />
      <path style="fill:#fff;" d="M147.78,207.92a7.25,7.25,0,0,1-7.25-7.25V173.8a7.25,7.25,0,0,1,14.5,0v26.87A7.26,7.26,0,0,1,147.78,207.92Z" />
      <path style="fill:#fff;" d="M105.52,207.92a7.26,7.26,0,0,1-7.25-7.25V155.89a7.25,7.25,0,0,1,14.5,0v44.78A7.25,7.25,0,0,1,105.52,207.92Z" />
      <path style="fill:#fff;" d="M189.72,207.92a7.25,7.25,0,0,1-7.25-7.25V155.89a7.25,7.25,0,0,1,14.5,0v44.78A7.26,7.26,0,0,1,189.72,207.92Z" />
      <path style="fill:#fff;" d="M225.74,100.94a7.25,7.25,0,0,1-7.25-7.25V48.91a7.25,7.25,0,1,1,14.5,0V93.69A7.24,7.24,0,0,1,225.74,100.94Z" />
      <path style="fill:#fff;" d="M275.7,207.92a7.25,7.25,0,0,1-7.25-7.25V155.89a7.25,7.25,0,0,1,14.5,0v44.78A7.26,7.26,0,0,1,275.7,207.92Z" />
      <path style="fill:#fff;" d="M61.54,201.78a7.25,7.25,0,0,1-7.25-7.25V173.8a7.25,7.25,0,0,1,14.5,0v20.73A7.24,7.24,0,0,1,61.54,201.78Z" />
    </g>
  </g>
</svg>