<svg xmlns="http://www.w3.org/2000/svg" viewBox="0 0 55.08 53.74"><title>browse_solid</title><g id="Warstwa_2" data-name="Warstwa 2"><g id="set"><path d="M28.19,53.09a.66.66,0,0,1-.65.65H12.22a.66.66,0,0,1-.65-.65V41.31c0-9.51-.26-17.69-.37-20.86L9.62,21.9a.64.64,0,0,1-.72.1L.37,17.86A.69.69,0,0,1,0,17.47.7.7,0,0,1,.08,17l6.59-12A5,5,0,0,1,10.2,2.11l.16,0,8.49-2,.2,0,.09,0h.09a.65.65,0,0,1,.65.65.92.92,0,0,0,.16.5l-.9.19-.4.09-8.2,1.94A3.67,3.67,0,0,0,7.8,5.56L1.55,17l7.52,3.65,2.06-1.9.22-.2a.67.67,0,0,1,.69-.12.64.64,0,0,1,.4.58v0c0,.72.43,10.47.43,22.27V52.44H27.54A.65.65,0,0,1,28.19,53.09Z" style="fill:#d8d8d8;stroke: #d8d8d8;stroke-width: 0;"/><path d="M55.06,17.47a.69.69,0,0,1-.34.39L46.19,22a.64.64,0,0,1-.72-.1l-1.58-1.45c-.11,3.17-.37,11.35-.37,20.86V53.09a.66.66,0,0,1-.65.65H27.54a.66.66,0,0,1-.65-.65.66.66,0,0,1,.65-.65H42.22V41.31c0-11.61.38-21.24.42-22.23v0a.28.28,0,0,0,0-.06.64.64,0,0,1,.4-.58.65.65,0,0,1,.68.12l.23.21L46,20.64,53.54,17,47.28,5.55a3.65,3.65,0,0,0-2.73-2.18l-.16-.05-8-1.89L36,1.34l-.9-.19a.92.92,0,0,0,.16-.5A.65.65,0,0,1,35.86,0H36L36,0l.2,0,8.65,2a4.92,4.92,0,0,1,3.52,2.8L55,17A.7.7,0,0,1,55.06,17.47Z" style="fill:#d8d8d8;stroke: #d8d8d8;stroke-width: 0;"/><path d="M36.51.65a1.91,1.91,0,0,1-.16.78c-.78,2-4.5,3.56-8.81,3.56s-8-1.57-8.8-3.56a1.91,1.91,0,0,1-.16-.78A.64.64,0,0,1,19.05,0l.09,0h.09a.65.65,0,0,1,.65.65.92.92,0,0,0,.16.5c.67,1.16,3.5,2.54,7.5,2.54s6.84-1.38,7.51-2.54a.92.92,0,0,0,.16-.5A.65.65,0,0,1,35.86,0H36L36,0A.64.64,0,0,1,36.51.65Z" style="fill:#d8d8d8;stroke: #d8d8d8;stroke-width: 0;"/><path d="M12.44,19v0a.64.64,0,0,1-.62.63h0a.65.65,0,0,1-.65-.62c0-.1,0-.21,0-.31-.07-1.7-.23-3.46-.24-3.48a.65.65,0,0,1,1.3-.12S12.38,17.17,12.44,19Z" style="fill:#d8d8d8;stroke: #d8d8d8;stroke-width: 0;"/><path d="M44.19,15.26S44,17.05,44,18.75c0,.1,0,.2,0,.3a.64.64,0,0,1-.65.62h0a.66.66,0,0,1-.63-.59V19c.07-1.83.26-3.84.26-3.86a.65.65,0,0,1,.71-.59A.64.64,0,0,1,44.19,15.26Z" style="fill:#d8d8d8;stroke: #d8d8d8;stroke-width: 0;"/><path d="M53.54,17,46,20.64,44,18.75c.07-1.7.23-3.47.23-3.49a.64.64,0,0,0-.58-.71.65.65,0,0,0-.71.59s-.19,2-.26,3.86v.08c0,1-.42,10.62-.42,22.23V52.44H12.87V41.31c0-11.8-.39-21.55-.43-22.27v0c-.06-1.83-.25-3.84-.25-3.86a.65.65,0,0,0-1.3.12s.17,1.78.24,3.48l-2.06,1.9L1.55,17,7.8,5.56a3.67,3.67,0,0,1,2.74-2.19l8.2-1.94c.78,2,4.5,3.56,8.8,3.56s8-1.57,8.81-3.56l8,1.89.16.05a3.65,3.65,0,0,1,2.73,2.18Z" style="fill:#d8d8d8;stroke: #d8d8d8;stroke-width: 0;"/><path d="M55,17l-6.6-12a4.92,4.92,0,0,0-3.52-2.8l-8.65-2L36,0,36,0h-.09a.65.65,0,0,0-.65.65.92.92,0,0,1-.16.5c-.67,1.16-3.51,2.54-7.51,2.54S20.71,2.31,20,1.15a.92.92,0,0,1-.16-.5A.65.65,0,0,0,19.23,0h-.09l-.09,0-.2,0-8.49,2-.16,0A5,5,0,0,0,6.67,4.92L.08,17a.7.7,0,0,0,0,.51.69.69,0,0,0,.34.39L8.9,22a.64.64,0,0,0,.72-.1l1.58-1.45c.11,3.17.37,11.35.37,20.86V53.09a.66.66,0,0,0,.65.65H42.87a.66.66,0,0,0,.65-.65V41.31c0-9.51.26-17.69.37-20.86l1.58,1.45a.64.64,0,0,0,.72.1l8.53-4.14a.69.69,0,0,0,.34-.39A.7.7,0,0,0,55,17Zm-9,3.68L44,18.75c.07-1.7.23-3.47.23-3.49a.64.64,0,0,0-.58-.71.65.65,0,0,0-.71.59s-.19,2-.26,3.86v.08c0,1-.42,10.62-.42,22.23V52.44H12.87V41.31c0-11.8-.39-21.55-.43-22.27v0c-.06-1.83-.25-3.84-.25-3.86a.65.65,0,0,0-1.3.12s.17,1.78.24,3.48l-2.06,1.9L1.55,17,7.8,5.56a3.67,3.67,0,0,1,2.74-2.19l8.2-1.94c.78,2,4.5,3.56,8.8,3.56s8-1.57,8.81-3.56l8,1.89.16.05a3.65,3.65,0,0,1,2.73,2.18L53.54,17Z" style="fill:#d8d8d8;stroke: #d8d8d8;stroke-width: 0;"/></g></g></svg>