<svg xmlns="http://www.w3.org/2000/svg" viewBox="0 0 221.99 247.7" fill="#4a494a"><title>flter</title><g  data-name="Warstwa 2"><g data-name="Layer 1"><path d="M213.85,0H8.14A8.16,8.16,0,0,0,0,8.15V49.29A8.06,8.06,0,0,0,2.39,55l79.89,79.9V239.56a8.13,8.13,0,0,0,8.14,8.14,8,8,0,0,0,4.32-1.24l41.15-25.71a8.12,8.12,0,0,0,3.82-6.91V134.93L219.6,55A8.06,8.06,0,0,0,222,49.29V8.15A8.16,8.16,0,0,0,213.85,0ZM123.42,131.56v77.77L98.57,224.87V131.56a8.16,8.16,0,0,0-2.39-5.75L16.29,45.91V16.29H205.7V36H126.42a8.15,8.15,0,0,0,0,16.29h72.91l-73.52,73.52A8.16,8.16,0,0,0,123.42,131.56Z"/></g></g></svg>