<svg xmlns="http://www.w3.org/2000/svg" viewBox="0 0 34.01 43.23" fill="#808a9f"><title>jtb_logo_small</title><g data-name="Warstwa 2"><g data-name="Layer 1"><path d="M30.18,10.11a11.2,11.2,0,0,0-6.87,3.22,32.69,32.69,0,0,1,2.53-11c.43-.88.85-1.65,1.05-2A.17.17,0,0,0,26.75,0c-.41,0-1.17,0-1.56,0C24.14,0,23-.08,22.31,3.74a61.35,61.35,0,0,0-.91,11.72c-1.79,2.75.67,4,1.35,3.69a14.12,14.12,0,0,1,7.69-7.59.19.19,0,0,1,.27.17,12.6,12.6,0,0,1-2.56,7.42c-2.8,3.61-4.83,1.62-5.4,1.06s-.42,0,0,.85,1.81,2.52,5.12,2c3.56-.52,5.8-6.91,6.12-10.23.29-2.94-2.23-2.86-3.81-2.75"/><path d="M18.06,8.1a16.47,16.47,0,0,0,.88-1.73,13.12,13.12,0,0,0,1.18-4.91C19.79.94,17.6.77,17,1.46s-1.21,4-1.32,4.87a12.31,12.31,0,0,1-.66,2.44,8.23,8.23,0,0,1-3.64.62.13.13,0,0,0-.14.16,2.58,2.58,0,0,0,1.06,1.57A9,9,0,0,0,14,11a5.52,5.52,0,0,1-.54.71c-1.42,1.58-2.11,1.38-.6,2.43a1.56,1.56,0,0,0,2,.17,32.8,32.8,0,0,0,.08,3.52c.37,4.62,1.56,5.49,2.56,5.72a2.56,2.56,0,0,0,1.7-.35c1-.61,0-1.51-.24-1.23s-.67.73-1,.29a29.43,29.43,0,0,1-.9-9.78c.07-.74.16-1.45.28-2.11a9.07,9.07,0,0,0,3-1.14c.3-.21.25-1.07.07-2-.09-.41-1.26.53-2.26.85"/><path d="M8.55,8.78c.58,0,1-.69.49-1.46a1.4,1.4,0,0,0-1.87-.55c-.69.27-.36,2.17,1.38,2"/><path d="M11.27,14.83a2.24,2.24,0,0,0-1.42-2c-.09-.05-.32.17-.41.13s-.1-.37-.22-.41A9.89,9.89,0,0,0,6.83,12c-.41,0-.14,1.13,0,2.11s.22,2.41.22,2.41c-2.31,4.68-5.72,6-5.72,6s.57,2.26,2.35,1.89,4.06-3.32,4.06-3.32a.34.34,0,0,1-.08-.25s.65-6,.65,5.24S4.41,42.5,2.83,41.72s-1.17-4.19.89-8.8c2.56-5.7,3.36-5.73,3.48-6s-.52-.7-1.46-.74-1.4-.11-4.17,5.17c-3,5.79-1.42,12,2.56,11.88S10.42,39.46,11,30.73c.52-8.19-1.1-12.47-1.1-12.47a4.58,4.58,0,0,0,1.38-3.43"/></g></g></svg>