<svg version="1.1" xmlns="http://www.w3.org/2000/svg" xmlns:xlink="http://www.w3.org/1999/xlink" x="0px" y="0px"
	 viewBox="0 0 137.7 57.4" style="enable-background:new 0 0 137.7 57.4;" xml:space="preserve" fill="#C57974">
<path d="M35.6,18.2c-1.5,0.1-4.1,0.7-6.9,3.2c0.2-4.8,1.7-9.4,2.5-11c0.4-0.9,0.8-1.6,1.1-2c0.1-0.1,0-0.2-0.1-0.3
	c-0.4,0-1.2-0.1-1.6,0c-1.1,0-2.2-0.1-2.9,3.7c-0.6,3.1-1.1,8.9-0.9,11.7c-1.8,2.8,0.7,4,1.4,3.7c0.9-2.5,3.5-5.8,7.7-7.6
	c0.1-0.1,0.3,0,0.3,0.2c0,1-0.2,4.4-2.6,7.4c-2.8,3.6-4.8,1.6-5.4,1.1c-0.6-0.6-0.4,0,0,0.9c0.4,0.9,1.8,2.5,5.1,2
	c3.6-0.5,5.8-6.9,6.1-10.2C39.7,18,37.2,18.1,35.6,18.2" />
<path d="M23.5,16.2c0.3-0.5,0.6-1.1,0.9-1.7c1.2-2.6,1.2-4.9,1.2-4.9c-0.3-0.5-2.5-0.7-3.1,0c-0.6,0.7-1.2,4-1.3,4.9
	c-0.1,0.4-0.3,1.4-0.7,2.4c-1.4,0.7-3.1,0.6-3.6,0.6c-0.1,0-0.2,0.1-0.1,0.2c0.3,1.1,1.1,1.6,1.1,1.6c0.6,0,1.1-0.1,1.6-0.1
	c-0.2,0.3-0.3,0.5-0.5,0.7c-1.4,1.6-2.1,1.4-0.6,2.4c1,0.7,1.6,0.4,2,0.2c0,1.1,0,2.3,0.1,3.5c0.4,4.6,1.6,5.5,2.6,5.7
	c0.2,0.1,1,0.1,1.7-0.4c1-0.6,0-1.5-0.2-1.2c-0.2,0.3-0.7,0.7-1,0.3c0,0-1.3-4.5-0.9-9.8c0.1-0.7,0.2-1.4,0.3-2.1
	c1.2-0.1,2.7-1,3-1.1c0.3-0.2,0.2-1.1,0.1-2C25.7,15,24.5,15.9,23.5,16.2" />
<path d="M14,16.9c0.6-0.1,1-0.7,0.5-1.5c-0.5-0.8-1.2-0.8-1.9-0.6C11.9,15.2,12.2,17.1,14,16.9" />
<path d="M16.7,22.9c0-0.9-0.6-1.6-1.4-2c-0.1,0-0.3,0.2-0.4,0.1c-0.1-0.1-0.1-0.4-0.2-0.4c-1.1-0.4-2.2-0.5-2.4-0.5
	c-0.4,0-0.1,1.1,0,2.1c0.2,1,0.2,2.4,0.2,2.4c-2.3,4.7-5.7,6-5.7,6s0.6,2.3,2.4,1.9c1.8-0.4,4.1-3.3,4.1-3.3s-0.1-0.1-0.1-0.2
	c0,0,0.6-6,0.6,5.2c0,11.3-3.9,16.4-5.5,15.6c-1.6-0.8-1.2-4.2,0.9-8.8c2.6-5.7,3.4-5.7,3.5-6c0.1-0.3-0.5-0.7-1.5-0.7
	c-0.9,0-1.4-0.1-4.2,5.2c-3,5.8-1.4,12,2.6,11.9c4-0.1,6.3-3.8,6.9-12.5c0.5-8.2-1.1-12.5-1.1-12.5S16.7,25.3,16.7,22.9" />
<g class='hidden-xs'>
	<path d="M55.7,27.7c-0.4,0.8-0.8,1.5-1.4,2c-0.6,0.5-1.2,1-2,1.2c-0.8,0.3-1.5,0.4-2.4,0.4c-1.1,0-2.1-0.2-3-0.6
		c-0.9-0.4-1.7-0.8-2.5-1.4l-1.1,1.9h-0.5l-0.2-7.1h0.4c0.4,1,0.8,2,1.2,2.8c0.4,0.8,1,1.5,1.5,2c0.6,0.6,1.2,1,1.9,1.3
		c0.7,0.3,1.5,0.4,2.4,0.4c1.5,0,2.5-0.4,3.3-1.2c0.7-0.8,1.1-1.8,1.1-3c0-1-0.3-1.8-0.8-2.5c-0.5-0.7-1.2-1.3-2.2-1.7
		c-0.5-0.2-0.9-0.4-1.3-0.5c-0.3-0.1-0.7-0.3-1-0.4c-0.3-0.1-0.7-0.3-1-0.5c-0.4-0.2-0.8-0.3-1.3-0.6c-1.2-0.5-2.1-1.2-2.7-2
		c-0.6-0.8-0.9-2-0.9-3.4c0-0.8,0.1-1.6,0.4-2.2c0.3-0.7,0.7-1.3,1.2-1.7c0.5-0.5,1.1-0.9,1.7-1.1c0.7-0.3,1.4-0.4,2.1-0.4
		c0.5,0,0.9,0.1,1.4,0.2c0.5,0.1,0.9,0.3,1.4,0.4c0.4,0.2,0.8,0.4,1.2,0.6c0.4,0.2,0.7,0.5,1,0.7l1.1-1.9h0.5l0.2,7.1H55
		c-0.3-1-0.7-1.9-1.1-2.7c-0.4-0.8-0.8-1.5-1.3-2c-0.5-0.6-1.1-1-1.8-1.3c-0.7-0.3-1.4-0.5-2.3-0.5c-1.1,0-2,0.3-2.7,1
		c-0.6,0.6-1,1.4-1,2.3c0,1,0.2,1.8,0.6,2.4c0.4,0.6,1.1,1.1,2,1.6c0.4,0.2,0.8,0.4,1.2,0.6c0.4,0.2,0.7,0.3,1,0.5
		c0.3,0.1,0.7,0.3,1,0.4c0.3,0.1,0.7,0.3,1.1,0.5c0.7,0.3,1.3,0.7,1.9,1c0.6,0.3,1,0.7,1.4,1.1c0.4,0.4,0.7,0.9,0.9,1.5
		c0.2,0.6,0.3,1.3,0.3,2.1C56.3,26,56.1,26.9,55.7,27.7z" />
	<path d="M67.3,28.8c-0.2,0.5-0.4,0.9-0.7,1.3c-0.3,0.4-0.7,0.7-1.1,0.9c-0.4,0.2-0.9,0.3-1.5,0.3
		c-1.2,0-2.1-0.4-2.6-1.1c-0.6-0.7-0.9-1.8-0.9-3.1v-9.2h-3.1V17h3.1v-4.9h2.1V17h4.3v0.9h-4.2v9c0,1,0.1,1.8,0.4,2.4
		c0.3,0.6,0.9,0.9,1.8,0.9c0.6,0,1.1-0.2,1.5-0.7c0.4-0.5,0.6-1.2,0.8-2.1h0.5C67.6,27.8,67.4,28.4,67.3,28.8z" />
	<path d="M80,31l-0.2-0.2v-1.9h-0.1c-0.3,0.3-0.6,0.6-0.9,0.9c-0.3,0.3-0.6,0.6-1,0.8c-0.4,0.2-0.8,0.4-1.3,0.6
		c-0.5,0.1-1.1,0.2-1.7,0.2c-0.7,0-1.3-0.1-1.9-0.4c-0.5-0.3-0.9-0.6-1.3-1.1c-0.3-0.5-0.6-1-0.7-1.6c-0.1-0.6-0.2-1.3-0.2-2v-6.8
		c0-0.7-0.3-1.2-0.8-1.6c-0.4-0.3-0.9-0.4-1.5-0.5v-0.3l4.3-0.4l0.2,0.2v10.1c0,1.1,0.3,1.9,0.8,2.5c0.5,0.6,1.2,0.8,1.9,0.8
		c0.6,0,1.2-0.1,1.6-0.2c0.5-0.2,0.9-0.4,1.2-0.6c0.3-0.2,0.6-0.5,0.8-0.7c0.2-0.2,0.4-0.5,0.5-0.6v-8.8c0-0.7-0.3-1.2-0.8-1.6
		c-0.2-0.1-0.5-0.2-0.9-0.3c-0.4-0.1-0.8-0.1-1.3-0.1v-0.3l5-0.4L82,17v11.6c0,0.6,0.3,1.1,0.8,1.5c0.2,0.1,0.4,0.2,0.7,0.3
		c0.3,0.1,0.5,0.1,0.8,0.1v0.4L80,31z" />
	<path d="M95.9,31l-0.2-0.2v-1.3l-0.1,0c-0.2,0.2-0.4,0.4-0.7,0.6c-0.3,0.2-0.6,0.4-1,0.6c-0.4,0.2-0.8,0.4-1.2,0.5
		c-0.4,0.1-0.9,0.2-1.4,0.2c-0.9,0-1.8-0.2-2.6-0.5c-0.8-0.4-1.5-0.9-2.1-1.5c-0.6-0.7-1.1-1.5-1.4-2.4c-0.3-0.9-0.5-2-0.5-3.2
		c0-1.1,0.2-2,0.6-2.9c0.4-0.9,0.9-1.7,1.6-2.3c0.7-0.6,1.4-1.1,2.3-1.5c0.9-0.4,1.8-0.5,2.7-0.5c1,0,1.8,0.1,2.5,0.4
		c0.7,0.2,1.1,0.4,1.3,0.5v-6.5c0-0.4-0.1-0.8-0.2-1.1c-0.2-0.3-0.3-0.6-0.6-0.7c-0.1-0.1-0.3-0.2-0.5-0.2c-0.2-0.1-0.5-0.2-0.7-0.2
		c-0.3-0.1-0.5-0.1-0.8-0.1c-0.3,0-0.5-0.1-0.7-0.1V8l5.5-0.3l0.2,0.2v20.5c0,0.6,0.3,1.2,0.8,1.5c0.2,0.1,0.5,0.2,0.8,0.3
		c0.4,0.1,0.7,0.1,1,0.1v0.4L95.9,31z M95.7,19.7c-0.1-0.3-0.3-0.6-0.5-0.9c-0.2-0.3-0.5-0.6-0.8-0.9c-0.3-0.3-0.7-0.5-1.1-0.7
		c-0.4-0.2-1-0.3-1.5-0.3c-0.7,0-1.3,0.2-1.8,0.5c-0.5,0.3-1,0.8-1.4,1.4c-0.4,0.6-0.7,1.4-1,2.3c-0.2,0.9-0.3,1.9-0.3,3
		c0,0.8,0.1,1.6,0.3,2.4c0.2,0.8,0.5,1.4,0.9,2c0.4,0.6,0.9,1.1,1.6,1.4c0.6,0.4,1.4,0.5,2.3,0.5c0.8,0,1.5-0.2,2-0.5
		c0.5-0.4,1-0.8,1.4-1.2V19.7z" />
	<path d="M102,31v-0.3c0.3,0,0.5,0,0.7,0c0.2,0,0.4-0.1,0.6-0.1c0.3-0.1,0.5-0.3,0.6-0.6c0.1-0.3,0.2-0.6,0.2-0.9v-9.6
		c0-0.3-0.1-0.6-0.2-0.9c-0.2-0.3-0.4-0.5-0.6-0.7c-0.2-0.1-0.5-0.2-0.8-0.4c-0.4-0.1-0.7-0.2-1-0.2v-0.2l4.7-0.3l0.2,0.2v11.9
		c0,0.7,0.3,1.2,0.8,1.5c0.6,0.2,1,0.3,1.4,0.3V31H102z M106.2,11.6c-0.3,0.4-0.7,0.5-1.2,0.5c-0.4,0-0.8-0.2-1.1-0.5
		c-0.3-0.3-0.5-0.7-0.5-1.1c0-0.4,0.2-0.8,0.5-1.2c0.3-0.3,0.7-0.5,1.1-0.5c0.5,0,0.9,0.2,1.2,0.5c0.3,0.3,0.5,0.7,0.5,1
		C106.7,10.8,106.5,11.2,106.2,11.6z" />
	<path d="M122.9,26.7c-0.3,0.9-0.8,1.7-1.4,2.4c-0.6,0.7-1.3,1.2-2.2,1.7c-0.9,0.4-1.9,0.6-3,0.6
		c-0.9,0-1.7-0.2-2.5-0.5c-0.8-0.3-1.5-0.8-2.1-1.5c-0.6-0.6-1.1-1.4-1.5-2.3c-0.4-0.9-0.5-1.9-0.5-3.1c0-1.1,0.2-2.1,0.5-3
		c0.3-0.9,0.8-1.7,1.4-2.4c0.6-0.7,1.3-1.2,2.2-1.5c0.9-0.4,1.8-0.5,2.9-0.5c1,0,2,0.2,2.8,0.6c0.8,0.4,1.6,0.9,2.1,1.5
		c0.6,0.7,1,1.4,1.4,2.3c0.3,0.9,0.5,1.8,0.5,2.9C123.4,24.8,123.2,25.8,122.9,26.7z M120.7,21.4c-0.2-0.8-0.4-1.6-0.7-2.2
		c-0.3-0.7-0.8-1.2-1.4-1.6c-0.6-0.4-1.3-0.6-2.1-0.6c-0.9,0-1.6,0.2-2.2,0.6c-0.6,0.4-1,1-1.4,1.6c-0.3,0.7-0.6,1.4-0.7,2.2
		c-0.1,0.8-0.2,1.6-0.2,2.4c0,1,0.1,1.9,0.2,2.7c0.2,0.9,0.4,1.6,0.8,2.3c0.4,0.7,0.8,1.2,1.4,1.6c0.6,0.4,1.3,0.6,2,0.6
		c0.8,0,1.4-0.2,2-0.6c0.6-0.4,1-0.9,1.4-1.6c0.4-0.7,0.7-1.4,0.8-2.3c0.2-0.9,0.3-1.8,0.3-2.7C121,23,120.9,22.2,120.7,21.4z" />
	<path d="M134.8,28.9c-0.3,0.5-0.6,1-1,1.4c-0.4,0.4-1,0.7-1.5,0.9c-0.6,0.2-1.2,0.3-1.9,0.3c-0.8,0-1.5-0.1-2.2-0.4
		c-0.6-0.3-1.2-0.6-1.6-0.8l-0.6,1h-0.3l-0.2-4.7h0.4c0.3,1.3,0.8,2.3,1.6,3.2c0.8,0.8,1.8,1.3,3,1.3c1.2,0,2.1-0.3,2.7-0.8
		c0.5-0.6,0.8-1.3,0.8-2.2c0-0.8-0.3-1.4-0.9-1.8c-0.6-0.4-1.6-0.8-2.8-1.2c-0.6-0.2-1.2-0.4-1.7-0.6c-0.5-0.2-1-0.5-1.4-0.9
		c-0.4-0.3-0.7-0.7-0.9-1.2c-0.2-0.5-0.3-1-0.3-1.7c0-1.1,0.4-2.1,1.2-2.8c0.8-0.8,1.8-1.1,3.2-1.1c0.7,0,1.3,0.1,1.9,0.3
		c0.6,0.2,1,0.4,1.4,0.7l0.6-1h0.3l0.2,4.2h-0.4c-0.1-0.5-0.3-1-0.6-1.4c-0.2-0.4-0.6-0.8-0.9-1.2c-0.4-0.3-0.8-0.6-1.2-0.8
		c-0.5-0.2-0.9-0.3-1.5-0.3c-1,0-1.7,0.2-2.1,0.7c-0.4,0.5-0.7,1.1-0.7,1.8c0,0.5,0.1,0.9,0.2,1.2c0.1,0.3,0.4,0.5,0.7,0.7
		c0.3,0.2,0.7,0.4,1.2,0.6c0.5,0.2,1.1,0.4,1.7,0.6c1.3,0.4,2.3,1,3.1,1.6c0.8,0.7,1.2,1.6,1.2,2.9C135.2,27.8,135,28.4,134.8,28.9z
		" />
</g>
</svg>
