<svg xmlns="http://www.w3.org/2000/svg" viewBox="0 0 193.94 193.95"><title>log_in</title><g id="Warstwa_2" data-name="Warstwa 2"><g id="Layer_1" data-name="Layer 1"><path d="M97,0a97,97,0,1,0,97,97A97.08,97.08,0,0,0,97,0Zm0,182.4A85.42,85.42,0,1,1,182.39,97,85.52,85.52,0,0,1,97,182.4Z" style="fill:#d8d8d8"/><path d="M97,33.6a34.58,34.58,0,1,0,34.57,34.58A34.61,34.61,0,0,0,97,33.6Zm0,57.6a23,23,0,1,1,23-23A23.05,23.05,0,0,1,97,91.2Z" style="fill:#d8d8d8"/><path d="M145.52,142.4a5.77,5.77,0,0,1-10.48.81C128.08,130.29,113.14,122,97,122s-31.11,8.34-38.07,21.26a5.78,5.78,0,0,1-10.12-5.57c9-16.55,27.89-27.24,48.19-27.24s39.21,10.69,48.19,27.24A5.83,5.83,0,0,1,145.52,142.4Z" style="fill:#d8d8d8"/></g></g></svg>