<svg xmlns="http://www.w3.org/2000/svg" viewBox="0 0 303.53 354.96" fill="#c57974"><title>no_body</title><g data-name="Warstwa 2"><g data-name="Layer 1"><path d="M151.75,0c-18.19,0-33,15-33,33.48S133.56,67,151.75,67s33-15,33-33.49S170,0,151.75,0Zm0,53.58a20.1,20.1,0,1,1,19.81-20.1A20,20,0,0,1,151.75,53.58Z"/><path d="M301,86.68c-4.92-8.61-15.07-7.36-23.17-7.36L228,79.87a18,18,0,0,1-3.63,5.18l-7.19,7.19,66.08-.71c3,0,5.3.06,6.34,1.87,1.57,2.75,1.18,7.39-4.13,11.76a7.35,7.35,0,0,1-3.55,1.56l-93.45,14.67-.17,0a6.37,6.37,0,0,0-.88.58,6.75,6.75,0,0,0-1.34,1.33,6.56,6.56,0,0,0-1.29,3.9V139.5L198,152.7V131.3a.07.07,0,0,1,.06-.07l86.69-12.49a20.45,20.45,0,0,0,12.39-6.51C304.81,103.6,304.89,93.5,301,86.68ZM105.55,166.13V189l13.2-13.2V152.93Zm90,35.28-10.78-10.78V334.79a6.72,6.72,0,0,1-6.67,6.77H165a6.72,6.72,0,0,1-6.67-6.77V228.05a6.9,6.9,0,0,0-6-7,6.64,6.64,0,0,0-7.19,6.67V334.79a6.72,6.72,0,0,1-6.67,6.77H125.42a6.72,6.72,0,0,1-6.67-6.77V189.92l-13.2,13.2V334.79A20,20,0,0,0,125.42,355h13.13a19.5,19.5,0,0,0,13.16-5.19.07.07,0,0,1,.09,0A19.5,19.5,0,0,0,165,355h13.13A20,20,0,0,0,198,334.79V203.43A17.76,17.76,0,0,1,195.54,201.41Zm-3.4-121.15L179.86,92.54H189l13.86-.15L215.24,80Zm-65.78.1,12.18,12.18h27.18L177.9,80.36H126.36Zm-37.23-.27a4.48,4.48,0,0,0,.36.4l11.94,11.94,13.08.11h9.88L112.14,80.29Zm26.11,41.34-.63-.12L21.37,106.92a4.49,4.49,0,0,1-2-.79c-6.61-4.85-7.12-9.84-5.48-12.73,1.06-1.81,2.82-1.64,6.85-1.64l66.39.55-4.75-4.75A17.91,17.91,0,0,1,77.88,80l-51.69-.45c-9.94,0-18.74-1.46-23.67,7.13-4.62,8.07-3.66,20.73,9.39,30.42a7.33,7.33,0,0,0,3.27,1.36l90.31,12.77a.07.07,0,0,1,.06.07V152l13.2-13.2V127.24A6.63,6.63,0,0,0,115.24,121.43Zm69.52,32.21v22.85l13.2,13.2V166.83Z"/><path d="M202.86,92.39l-39.67,39.68,21.57,21.57L198,166.83,214,182.91a8.08,8.08,0,0,1-11.43,11.43L198,189.69l-13.2-13.2L151.4,143.13l-32.65,32.66L105.55,189l-7.86,7.86a8.08,8.08,0,1,1-11.43-11.43l19.29-19.29,34.79-34.79L101.43,92.43,89.49,80.49a4.48,4.48,0,0,1-.36-.4,8.07,8.07,0,0,1,11.79-11l23.47,23.47,27.74,27.73,40-40,13.7-13.7A8.08,8.08,0,0,1,217.27,78l-2,2Z"/><path d="M186.05,123.34l1.34-1.33A6.75,6.75,0,0,0,186.05,123.34Z" style="fill:#fff"/></g></g></svg>