<svg xmlns="http://www.w3.org/2000/svg" viewBox="0 0 107.01 80.25">
  <g id="4af16971-331c-4922-9c0b-3c4aed72bfd9" data-name="Warstwa 2">
    <g id="9eebc760-25ff-4b49-ac93-b710d4e16f96" data-name="Layer 1">
      <path d="M93.63,1H13.38A12.39,12.39,0,0,0,1,13.38v53.5A12.39,12.39,0,0,0,13.38,79.25H93.63A12.39,12.39,0,0,0,106,66.88V13.38A12.39,12.39,0,0,0,93.63,1ZM77,40.13,99.33,17.84V62.42ZM13.38,7.69H93.63A5.62,5.62,0,0,1,98,9.74L61.79,45.92a11.73,11.73,0,0,1-16.57,0L9,9.74A5.62,5.62,0,0,1,13.38,7.69ZM30,40.13,7.69,62.42V17.84ZM93.63,72.57H13.38a5.66,5.66,0,0,1-4.34-2L34.7,44.85l5.8,5.8a18.42,18.42,0,0,0,26,0l5.79-5.8L98,70.52A5.66,5.66,0,0,1,93.63,72.57Z" style="fill:#4a494a;stroke:#414141;stroke-miterlimit:10;stroke-width:2px"/>
    </g>
  </g>
</svg>