<svg xmlns="http://www.w3.org/2000/svg" viewBox="0 0 156.22 258.9"><title>bag</title><g id="Warstwa_2" data-name="Warstwa 2"><g id="Layer_1" data-name="Layer 1"><path d="M145.64,257.4H10.58c-5,0-9.08-3.73-9.08-8.3V103.69c0-4.57,4.07-8.29,9.08-8.29H30.12c2.06-8.94,5.48-22.85,9.75-37,5.66-18.7,10.48-30.9,15.63-39.55,7-11.69,15-17.37,24.61-17.37S97.82,7.23,104.54,19c5,8.69,9.49,20.94,14.69,39.72,3.87,14,6.91,27.76,8.75,36.68h17.66c5,0,9.08,3.72,9.08,8.29V249.1C154.72,253.67,150.65,257.4,145.64,257.4ZM13.25,246.66H143V106.13H123.09a5.75,5.75,0,0,1-5.78-4.41c-1.61-8.11-5-24.13-9.47-40.37-6.73-24.28-15.28-49.11-27.73-49.11S58.54,37,51.2,61.28c-4.94,16.35-8.73,32.43-10.55,40.56a5.76,5.76,0,0,1-5.75,4.29H13.25Z" style="fill:#d8d8d8;stroke:#d8d8d8;stroke-miterlimit:10;stroke-width:3px"/><rect x="23.17" y="95.4" width="116.75" height="10.74" style="fill:#d8d8d8;stroke:#d8d8d8;stroke-miterlimit:10;stroke-width:3px"/></g></g></svg>