<svg xmlns="http://www.w3.org/2000/svg" viewBox="0 0 189.73 124.51" fill="#414141"><title>eye</title><g data-name="Warstwa 2"><g data-name="Layer 1"><path d="M165.64,25.56C150.09,13.2,123.33,0,94.87,0S39.64,13.2,24.09,25.56C10.81,36.12,0,52.58,0,62.26,0,73.33,16,91.9,23.76,99.16c17.48,16.34,42.73,25.35,71.11,25.35s53.62-9,71.1-25.36c7.75-7.25,23.76-25.82,23.76-36.89C189.73,52.58,178.92,36.12,165.64,25.56Zm-7,65.76c-15.48,14.49-38.13,22.46-63.77,22.46s-48.29-8-63.78-22.46c-11-10.26-20.37-24.56-20.37-29.06,0-5,7.81-18.58,20-28.3C44.9,22.73,69.16,10.73,94.87,10.73s50,12,64.1,23.23c12.23,9.72,20,23.25,20,28.3C179,66.76,169.61,81.06,158.64,91.32Z"/><path d="M94.87,22a40,40,0,0,0-27.5,10.92L75,40.53a29.47,29.47,0,1,1-9.61,21.72,29.05,29.05,0,0,1,.56-5.63H55.07A40.21,40.21,0,1,0,94.87,22Z"/><path d="M107.89,62.25a13,13,0,1,0-13,13A13,13,0,0,0,107.89,62.25Z"/></g></g></svg>