<svg xmlns="http://www.w3.org/2000/svg" viewBox="0 0 159.94 143.58"><title>liked</title><g data-name="Warstwa 2"><g data-name="Layer 1"><path d="M128.73,1.37A46.42,46.42,0,0,0,117.79,0C97.58,0,85.94,14.34,79.87,25.77,73.81,14.33,62.15,0,41.72,0A47.69,47.69,0,0,0,30.61,1.38C6.65,7.44-4.87,29.83,1.93,57c11.12,46.82,72.28,84.17,74.87,85.73a5.77,5.77,0,0,0,3,.83,5.83,5.83,0,0,0,3-.82c2.6-1.57,63.81-38.9,75.38-85.7C164.74,29.76,152.94,7.39,128.73,1.37Zm18.23,53C137.89,91,92,123.05,79.77,131c-12.17-8-58-40-66.67-76.72-4.16-16.66-1-36.37,20.26-41.75a35.7,35.7,0,0,1,8.36-1.05C66,11.5,74,41.18,74.28,42.44a5.73,5.73,0,0,0,5.55,4.32h0a5.75,5.75,0,0,0,5.56-4.29c.08-.31,8.43-31,32.38-31a35.12,35.12,0,0,1,8.19,1C147.61,17.91,151,37.66,147,54.33Z" style="fill:#696868"/></g></g></svg>