<svg xmlns="http://www.w3.org/2000/svg" viewBox="0 0 140.45 127.52"><title>liked_solid</title><g data-name="Warstwa 2"><g data-name="Layer 1"><g ><path d="M70.21,24.41c1.72-3.06,3-5.63,4.52-8C82.41,5,93.31-1,107,.14c14.85,1.25,25.21,9.6,30.69,23.52C143,37.1,140.1,50,134.12,62.39c-5.77,12-14,22.22-23.18,31.75a252.53,252.53,0,0,1-38,32.16c-1.55,1.08-2.79,1.86-4.75.47C48.72,113,30.72,97.71,16.31,78.58,8.3,68,2.11,56.41.33,43-2.11,24.63,9.2,4.39,30.24.56c17-3.09,32.53,7.55,38.29,20.81C68.9,22.22,69.42,23,70.21,24.41Z" style="fill:#d8d8d8"/></g></g></g></svg>