<svg xmlns="http://www.w3.org/2000/svg" viewBox="0 0 213.43 207.88" fill="#bcbec0">
  <title>browse</title>
  <g data-name="Warstwa 2">
    <g data-name="Layer 1">
      <path style="fill:#000;" d="M162.19,206.41H51.24a7.89,7.89,0,0,1-7.89-7.86V156c0-24.64-.48-47.22-1-64.2a7.89,7.89,0,0,1-5.62-.53L5.92,76.39l-.06,0a8,8,0,0,1-4-4.47c0-.11-.07-.22-.11-.33a8.08,8.08,0,0,1,.54-5.83c0-.06.07-.13.11-.2L26.3,22.1l.06-.11C32.1,12.07,38.1,10.46,42.49,9.28l.1,0,.58-.14.07,0L73.87,1.9c.34-.09.64-.15.9-.2l.58-.12a7.21,7.21,0,0,1,1.26-.11,7.89,7.89,0,0,1,7.85,7.09c1.26,1.6,8.59,6.23,22.24,6.23s21-4.61,22.27-6.23a7.89,7.89,0,0,1,7.85-7.09,6.47,6.47,0,0,1,1.25.11c.2,0,.39.07.59.12s.56.11.9.2l31.21,7.34.17,0c4.39,1.18,10.39,2.79,16.1,12.67l.06.11L211,65.53l.09.17a7.94,7.94,0,0,1,.54,5.89,2,2,0,0,1-.08.26,8,8,0,0,1-4,4.52l-.05,0L176.65,91.32a7.94,7.94,0,0,1-5.59.53c-.5,16.94-1,39.49-1,64.19v42.51A7.89,7.89,0,0,1,162.19,206.41Zm-107.77-11H159V156c0-30.62.73-57.93,1.34-75.45a5.55,5.55,0,0,1,9.28-3.88l4.1,3.76,26-12.55L177.42,27.41c-3.38-5.83-5.74-6.51-9.27-7.46L139.1,13.12a7.71,7.71,0,0,1-.49.89c-4.14,7-17.23,11.81-31.91,11.81S79,21,74.83,14a9.84,9.84,0,0,1-.5-.9L45.31,20c-3.42.92-5.92,1.61-9.34,7.5L13.75,67.92l26,12.55,4.1-3.76a5.56,5.56,0,0,1,5.88-1,5.5,5.5,0,0,1,3.39,4.9c.62,17.58,1.35,44.94,1.35,75.45ZM206.32,70ZM77.78,12.31Zm57.79,0Zm-.25,0h0ZM84.18,8.12Z" />
    </g>
  </g>
</svg>