<?xml version="1.0" standalone="no" ?>
<!DOCTYPE svg PUBLIC "-//W3C//DTD SVG 20010904//EN" "http://www.w3.org/TR/2001/REC-SVG-20010904/DTD/svg10.dtd">
<svg version="1.0" xmlns="http://www.w3.org/2000/svg" width="1600.000000pt" height="470.000000pt" viewBox="0 0 1600.000000 470.000000" preserveAspectRatio="xMidYMid meet">
  <metadata>
Created by potrace 1.16, written by Peter Selinger 2001-2019
</metadata>
  <g transform="translate(0.000000,470.000000) scale(0.100000,-0.100000)" fill="#536C4E" stroke="none">
    <path d="M15231 4618 c0 -40 8 -102 17 -138 15 -56 20 -65 40 -64 12 0 22 -4
22 -9 0 -5 11 -6 24 -3 16 4 32 -1 49 -14 73 -57 91 22 22 98 -109 122 -155
178 -155 189 0 7 -4 13 -10 13 -6 0 -10 -30 -9 -72z" />
    <path d="M14977 4520 c-21 -4 -43 -12 -48 -17 -18 -18 11 -51 69 -80 29 -15
55 -31 58 -35 8 -13 68 -8 88 7 14 10 21 31 24 69 l4 54 -58 5 c-70 6 -87 6
-137 -3z" />
    <path d="M14884 4318 c-5 -9 -40 -22 -84 -32 -41 -8 -100 -23 -130 -32 -30 -9
-85 -16 -122 -16 -52 -1 -68 -4 -68 -15 0 -8 -4 -12 -10 -8 -5 3 -47 1 -94 -5
-47 -6 -127 -13 -178 -15 -239 -12 -430 -42 -613 -97 -83 -25 -198 -40 -312
-40 -64 0 -83 -4 -83 -14 0 -8 7 -14 15 -14 20 0 19 -16 -1 -24 -23 -9 -26 -8
-18 7 6 9 4 9 -8 -1 -8 -7 -25 -11 -36 -9 -36 5 -35 14 3 21 37 7 42 15 23 34
-9 9 -8 12 3 16 44 13 50 17 44 26 -3 5 -20 10 -36 10 -18 0 -28 4 -24 10 3 6
0 10 -8 10 -8 0 -17 -6 -20 -14 -5 -11 -24 -14 -83 -13 -69 2 -79 4 -84 22 -5
21 -40 34 -40 15 0 -6 4 -9 9 -6 14 9 20 -18 7 -34 -6 -8 -23 -15 -38 -16
-118 -2 -128 -4 -128 -21 0 -13 -3 -14 -8 -5 -9 13 -122 23 -122 10 0 -4 -7
-5 -15 -2 -8 4 -54 0 -102 -7 -49 -7 -98 -12 -110 -12 -13 0 -23 -2 -23 -6 0
-4 -13 -8 -30 -9 -16 -1 -30 2 -30 8 0 5 -7 7 -15 4 -8 -4 -15 -14 -15 -23 0
-11 -3 -12 -8 -4 -10 16 -104 3 -110 -16 -3 -8 0 -11 7 -7 6 4 11 2 11 -3 0
-17 -15 -13 -36 10 -17 19 -26 21 -84 15 -36 -4 -87 -9 -115 -11 -27 -3 -52
-10 -54 -16 -1 -5 -15 -15 -30 -21 -42 -17 -6 -22 61 -8 33 6 66 14 73 16 18
7 8 -31 -11 -47 -8 -6 -14 -21 -14 -33 0 -27 -18 -46 -37 -39 -8 3 -27 -4 -42
-15 -16 -11 -40 -19 -54 -18 -14 2 -46 0 -72 -4 -34 -5 -50 -3 -60 6 -21 22
-35 16 -35 -13 0 -26 0 -26 -20 -8 -15 14 -23 16 -31 8 -6 -6 -18 -9 -27 -5
-11 4 -14 1 -9 -10 4 -12 1 -14 -14 -11 -18 5 -18 7 -4 23 8 9 15 20 15 23 0
12 -28 7 -33 -5 -4 -10 -6 -10 -6 0 -1 6 -12 12 -26 12 -20 0 -25 -5 -25 -25
0 -14 -4 -25 -10 -25 -5 0 -10 5 -10 11 0 6 -7 9 -15 5 -10 -4 -15 1 -15 14 0
23 -1 23 -56 10 -22 -5 -53 -6 -69 -2 -24 7 -28 13 -29 49 -1 41 0 42 33 45
19 2 36 9 39 17 4 11 -10 12 -74 6 -44 -4 -117 -8 -164 -10 -47 -2 -146 -9
-220 -15 -192 -17 -901 -13 -930 5 -4 2 -51 7 -106 11 -54 3 -102 11 -105 16
-3 5 -17 7 -30 3 -13 -3 -89 -12 -169 -20 -283 -28 -355 -37 -372 -46 -9 -5
-32 -9 -52 -9 -19 0 -47 -5 -62 -10 -19 -8 -31 -7 -42 2 -12 10 -14 10 -8 1 4
-7 2 -14 -3 -14 -6 -1 -23 -3 -38 -5 -98 -10 -276 -35 -322 -44 -30 -5 -56 -8
-59 -5 -3 3 -10 1 -16 -4 -6 -5 -52 -12 -101 -15 -50 -3 -133 -10 -185 -16
-233 -25 -306 -30 -470 -36 -96 -3 -213 -9 -260 -14 -47 -5 -116 -12 -155 -15
-38 -4 -72 -8 -75 -10 -3 -2 -30 -6 -60 -9 -30 -3 -73 -8 -95 -11 -22 -2 -109
-7 -194 -10 -84 -3 -157 -7 -161 -10 -4 -2 -40 -7 -81 -10 -41 -3 -85 -8 -99
-10 -14 -2 -70 -7 -125 -10 -55 -3 -128 -8 -161 -10 -34 -2 -136 -5 -225 -6
-90 -1 -213 -5 -274 -10 -60 -4 -175 -10 -255 -13 -80 -3 -214 -9 -299 -12
-125 -6 -155 -4 -162 7 -7 12 -9 11 -9 -2 0 -13 -17 -16 -108 -17 -153 -3
-278 -10 -430 -22 -212 -18 -686 -25 -932 -14 -179 8 -425 9 -431 2 -3 -5 -88
-11 -190 -13 -165 -4 -372 -18 -454 -29 -56 -8 -404 -34 -535 -40 -139 -7
-406 -25 -450 -31 -19 -3 -73 -9 -120 -15 -47 -5 -124 -17 -170 -25 -47 -9
-106 -18 -132 -22 -26 -3 -45 -10 -42 -14 8 -13 -80 -11 -93 2 -6 6 -9 18 -6
27 7 16 -21 42 -40 38 -7 -2 -9 -1 -4 1 4 3 7 11 7 19 0 15 -63 20 -94 8 -20
-8 -21 -43 -1 -63 33 -34 75 -86 75 -93 0 -4 -12 -10 -27 -14 -16 -3 -40 -10
-55 -16 -15 -5 -32 -7 -37 -3 -6 3 -11 1 -11 -5 0 -7 -7 -9 -17 -6 -10 4 -14
4 -10 0 9 -9 -29 -29 -72 -37 -28 -6 -34 -4 -38 13 -6 23 -8 23 -32 10 -15 -7
-23 -4 -37 15 -22 29 -36 32 -33 8 4 -44 -2 -93 -12 -93 -14 0 -39 -26 -39
-40 0 -6 14 -24 30 -40 17 -17 27 -30 22 -30 -4 0 -13 5 -18 10 -6 6 -19 8
-28 4 -14 -5 -15 -9 -4 -16 8 -5 0 -6 -23 -3 -31 6 -39 3 -56 -18 -14 -18 -31
-27 -59 -29 -34 -3 -39 -6 -41 -28 0 -14 -1 -31 -2 -38 -1 -7 -4 -11 -8 -9 -5
3 -8 -17 -8 -44 0 -34 -5 -51 -15 -54 -8 -4 -16 -1 -18 4 -6 17 -20 13 -27 -9
-3 -10 -1 -28 5 -40 9 -18 8 -20 -14 -20 -29 0 -62 -51 -76 -114 -5 -23 -11
-50 -15 -62 -4 -13 -1 -27 10 -38 12 -12 14 -20 7 -29 -14 -17 -30 -111 -24
-142 3 -18 0 -25 -12 -25 -9 0 -19 -7 -22 -15 -3 -8 -13 -17 -23 -20 -13 -4
-15 -15 -12 -51 2 -35 -1 -49 -12 -56 -9 -5 -14 -15 -11 -22 3 -8 1 -17 -5
-21 -16 -10 -13 -22 7 -27 15 -4 18 -15 16 -54 0 -28 -6 -60 -13 -71 -14 -27
-14 -44 1 -80 6 -15 11 -36 11 -45 -1 -41 -4 -49 -13 -43 -6 3 -7 -1 -4 -9 3
-9 1 -16 -5 -16 -8 0 -10 -11 -5 -35 7 -40 -7 -65 -37 -65 -20 0 -26 -15 -9
-25 6 -4 5 -11 -3 -19 -6 -8 -14 -10 -17 -5 -3 4 -5 -12 -5 -37 0 -24 4 -44 8
-44 5 0 5 -5 2 -10 -4 -6 -1 -9 6 -8 13 3 25 -38 31 -109 3 -24 7 -46 11 -50
14 -13 6 -24 -12 -18 -14 4 -23 0 -30 -14 -14 -25 -14 -31 0 -31 5 0 7 5 3 11
-4 7 -1 10 6 7 9 -3 14 -20 14 -46 0 -26 4 -38 10 -34 6 3 5 -2 -2 -10 -8 -9
-20 -14 -29 -11 -12 5 -12 7 -1 15 10 8 10 9 -2 5 -17 -4 -21 -48 -5 -59 6 -5
6 -8 -2 -8 -9 0 -9 -8 1 -32 10 -25 11 -51 4 -110 -9 -76 -9 -78 18 -108 25
-28 28 -38 30 -123 2 -96 -11 -166 -33 -174 -15 -6 -18 -43 -3 -43 6 0 10 -9
10 -21 0 -15 5 -19 15 -15 8 3 15 1 15 -4 0 -6 6 -10 13 -10 13 0 42 -48 34
-57 -9 -8 -37 10 -42 28 -8 23 -44 44 -56 32 -16 -16 3 -52 37 -68 19 -9 34
-20 34 -25 0 -6 4 -10 10 -10 5 0 19 -10 32 -23 16 -16 46 -27 98 -37 60 -10
81 -19 103 -42 33 -36 34 -41 2 -26 -23 10 -29 20 -26 40 1 9 -23 11 -32 2
-11 -11 34 -72 61 -83 15 -6 56 -13 92 -16 50 -5 69 -12 85 -29 22 -26 79 -56
140 -76 22 -7 47 -18 55 -25 8 -6 44 -20 80 -29 36 -10 85 -25 110 -34 38 -14
84 -17 290 -16 221 0 251 2 310 21 63 21 112 26 350 42 79 6 119 5 129 -3 11
-8 13 -8 8 0 -4 8 14 14 56 19 95 11 698 15 691 4 -3 -5 -1 -9 5 -9 5 0 11 6
13 13 7 18 360 27 863 21 919 -10 2002 -3 2145 15 116 15 200 14 200 -1 0 -6
6 -4 13 6 8 11 20 17 28 14 8 -3 24 -1 37 3 13 5 76 11 140 13 65 3 138 9 162
15 25 6 64 12 87 14 24 2 46 6 50 10 3 4 34 7 68 7 33 0 65 4 71 9 5 5 47 12
94 15 70 4 363 45 510 72 33 5 36 3 47 -26 11 -30 15 -32 44 -26 18 3 40 12
48 20 9 8 35 17 58 21 33 5 43 3 51 -10 14 -25 89 -36 131 -19 18 8 42 14 53
14 16 0 19 5 15 26 -3 18 -1 24 9 20 8 -3 14 -1 14 3 0 5 46 10 101 10 136 1
374 20 405 32 14 5 30 7 35 3 5 -3 9 -2 9 3 0 4 24 8 52 8 29 0 76 3 103 6 28
3 40 4 28 2 -18 -3 -23 -11 -23 -34 0 -25 4 -29 28 -28 54 2 77 14 77 39 0 21
7 27 53 39 51 14 68 35 35 44 -10 3 1 5 23 6 23 0 57 4 75 7 20 4 31 3 26 -2
-9 -10 -14 -11 -52 -13 -48 -2 -25 -21 26 -21 46 0 51 2 46 20 -4 15 1 22 19
26 28 7 54 -1 54 -16 0 -6 -5 -8 -11 -4 -8 4 -9 0 -4 -15 5 -17 2 -21 -15 -21
-23 0 -46 -40 -37 -64 8 -19 83 -22 154 -5 70 16 78 23 77 58 -2 30 0 31 37
31 21 0 39 -4 39 -10 0 -5 10 -16 23 -24 18 -12 41 -13 127 -6 171 15 261 33
295 61 12 9 141 27 250 35 90 6 117 12 110 24 -3 6 -1 10 4 10 6 0 11 -6 11
-14 0 -10 11 -14 35 -13 23 1 34 6 30 15 -3 8 8 12 35 12 28 0 40 -4 40 -14 0
-18 39 -9 47 10 3 8 14 14 24 14 11 0 16 -5 13 -13 -3 -9 6 -13 31 -14 41 -1
59 16 18 18 -56 3 312 41 392 41 22 0 76 6 120 14 44 8 110 13 147 12 57 -3
68 -6 68 -21 0 -25 53 -45 122 -46 34 -1 38 -4 44 -36 3 -19 10 -35 15 -35 15
0 28 36 22 61 -3 13 -2 21 2 17 4 -4 16 -3 25 2 13 7 20 5 24 -6 4 -11 -1 -18
-14 -21 -11 -3 -20 -14 -20 -24 0 -22 -4 -22 58 -8 49 10 72 34 72 74 0 8 12
17 28 21 15 3 32 7 39 9 15 5 34 -18 25 -31 -4 -6 -20 -17 -37 -25 -44 -21
-39 -43 10 -47 62 -5 128 40 117 81 -5 18 26 4 48 -23 28 -34 68 -39 135 -15
22 8 47 15 56 15 9 0 19 7 23 15 3 8 14 15 25 15 52 0 74 39 24 41 -50 1 5 17
62 18 65 2 95 10 95 27 0 8 -5 14 -12 14 -59 0 140 36 255 47 40 3 57 9 57 19
0 8 10 14 25 14 14 0 25 -4 25 -10 0 -6 31 -7 80 -3 61 5 80 3 80 -7 0 -8 8
-10 23 -6 12 4 45 8 73 11 27 2 54 5 60 6 5 1 25 -5 44 -14 26 -11 53 -14 97
-10 46 4 71 1 97 -11 36 -17 136 -22 136 -7 0 10 43 25 97 35 27 4 32 2 35
-17 4 -29 33 -29 32 1 0 17 5 22 25 22 31 0 56 14 48 27 -3 5 4 10 16 10 16 2
18 0 8 -6 -23 -14 -2 -33 28 -25 14 4 48 7 75 8 54 1 75 22 29 29 -24 3 -23 4
8 6 24 0 36 -3 35 -11 -1 -15 5 -18 35 -18 16 0 19 4 14 20 -5 17 -2 20 22 21
15 1 36 0 46 -1 10 -1 24 3 30 8 7 5 30 12 52 16 127 20 170 32 173 50 3 14 0
17 -13 12 -10 -3 -24 -1 -31 5 -9 8 -18 8 -26 2 -7 -6 -20 -10 -28 -11 -8 0
-72 -1 -142 -2 -71 -1 -128 -6 -128 -11 0 -5 -4 -9 -10 -9 -5 0 -10 7 -10 15
0 8 -4 15 -10 15 -5 0 -10 -6 -10 -12 0 -9 -3 -8 -10 2 -7 11 -33 15 -111 17
-56 1 -109 5 -117 8 -8 3 -20 1 -27 -5 -9 -8 -15 -8 -20 0 -6 10 13 15 48 12
9 -1 17 2 17 6 0 4 17 8 37 9 21 1 39 7 41 12 2 6 8 11 13 11 4 0 6 -8 2 -17
-6 -17 -5 -17 13 -2 28 24 64 31 64 12 0 -13 7 -14 38 -9 20 4 49 9 65 10 34
3 41 11 32 33 -5 10 -9 23 -9 28 -1 14 -96 19 -109 6 -14 -14 -53 -14 -79 0
-17 9 -24 8 -32 -3 -15 -20 -46 -19 -46 2 0 10 13 23 30 30 17 7 30 20 30 29
0 13 9 15 54 13 47 -3 55 -7 58 -25 2 -14 9 -21 18 -18 8 2 20 4 27 4 7 0 10
4 7 9 -6 9 -5 9 46 11 19 1 38 5 41 9 3 5 18 9 35 9 49 3 64 9 64 29 0 31 38
43 91 29 16 -4 32 -2 38 4 6 6 11 8 11 4 0 -3 11 -2 25 3 14 5 56 12 93 15 37
3 68 9 69 13 2 4 35 6 74 6 38 -1 87 3 107 8 20 5 44 9 52 8 58 -4 125 2 136
11 9 8 14 8 14 1 0 -14 50 -20 78 -8 21 9 29 26 16 39 -4 3 -14 2 -23 -3 -10
-5 -23 -5 -30 -1 -10 6 -9 10 3 14 9 4 16 13 16 22 0 8 7 15 15 15 8 0 15 -4
15 -10 0 -5 5 -10 11 -10 6 0 9 12 7 26 -4 36 25 55 48 32 14 -13 15 -22 6
-47 -10 -28 -9 -31 14 -37 28 -7 29 -11 8 -36 -12 -12 -14 -21 -7 -30 6 -7 14
-27 17 -45 6 -28 4 -33 -21 -47 l-28 -14 47 3 c25 1 61 10 79 19 38 19 56 20
61 5 4 -13 73 -39 104 -39 12 0 24 -7 28 -15 7 -18 43 -19 79 -2 31 14 33 24
11 48 -23 25 -9 39 39 39 50 0 72 12 64 34 -6 16 -3 17 45 20 25 2 30 12 13
26 -12 10 -18 10 -30 0 -13 -11 -15 -9 -13 11 3 20 -1 24 -22 21 -14 -2 -37
-3 -52 -3 -18 0 -28 -5 -28 -14 0 -10 10 -15 27 -15 14 0 24 -2 21 -5 -8 -8
-128 7 -128 16 0 5 14 9 31 9 20 0 29 4 26 13 -2 6 -16 12 -30 12 -19 -1 -27
4 -27 17 0 19 15 24 25 8 9 -15 25 -12 25 5 0 8 8 19 18 24 22 12 52 -4 52
-27 0 -14 2 -14 9 -3 5 8 16 11 26 7 19 -7 48 11 39 25 -3 5 0 9 6 9 13 0 10
52 -4 62 -28 19 -49 -25 -23 -51 10 -10 9 -11 -5 -6 -10 4 -18 15 -18 25 0 10
-9 24 -21 32 l-21 14 21 1 c12 1 19 -2 16 -8 -9 -14 9 -11 31 5 10 8 16 18 12
21 -13 14 -98 18 -112 6 -11 -9 -15 -9 -19 1 -4 11 -6 11 -6 0 -1 -9 -11 -11
-38 -6 -64 12 -105 44 -55 44 7 0 22 10 32 23 l18 22 7 -28 c12 -47 87 -59 98
-17 3 14 1 17 -11 13 -12 -5 -14 -1 -8 22 4 15 14 34 21 42 8 8 15 20 16 26 0
7 2 23 5 37 9 63 11 110 3 110 -5 0 -9 4 -9 10 0 5 7 7 15 4 8 -4 15 -2 16 2
0 5 2 17 4 26 2 12 -6 19 -26 23 -16 4 -29 10 -29 15 0 5 -10 10 -21 12 -28 4
-44 30 -34 54 7 17 9 17 12 2 3 -13 11 -10 39 18 20 19 42 34 50 34 8 0 14 10
14 25 0 23 4 25 40 25 36 0 40 3 40 24 0 19 -4 23 -19 19 -10 -3 -22 0 -26 6
-8 15 32 48 68 56 18 4 27 13 27 26 0 10 7 19 15 19 8 0 15 4 15 10 0 5 -6 7
-14 4 -8 -3 -17 -1 -21 5 -3 6 6 16 21 21 21 8 24 14 16 22 -7 7 -12 20 -12
30 0 10 -7 18 -16 18 -8 0 -12 5 -9 11 5 7 -7 9 -39 6 -25 -3 -49 -1 -52 4 -3
5 0 9 6 9 7 0 10 6 7 13 -2 6 -12 11 -21 9 -13 -2 -15 2 -10 22 4 17 2 26 -6
26 -7 0 -10 -6 -7 -13 3 -7 -2 -22 -10 -32 -12 -17 -15 -18 -23 -5 -5 8 -14
16 -20 16 -5 1 -12 2 -15 3 -11 2 28 51 40 51 7 0 16 7 19 16 9 23 7 36 -4 29
-5 -3 -10 -1 -10 4 0 19 13 12 40 -21 26 -31 27 -31 51 -15 13 9 32 17 42 17
9 0 20 7 23 15 4 8 18 15 33 14 l26 -1 -28 -10 c-34 -12 -30 -32 6 -36 23 -3
27 0 27 21 0 16 7 26 20 30 14 4 18 10 14 22 -5 13 -14 15 -41 10 -21 -4 -40
-2 -48 5 -11 9 -20 7 -41 -9 -15 -12 -30 -19 -33 -15 -3 3 3 12 14 20 11 8 19
21 17 28 -3 15 35 29 40 14 2 -5 11 -6 21 -2 13 4 16 15 14 39 -4 31 -1 34 36
45 27 8 36 14 28 20 -7 4 -22 5 -32 3 -10 -3 -19 0 -19 6 0 6 -7 11 -15 11 -8
0 -15 7 -15 15 0 8 -6 15 -12 16 -25 1 57 27 88 28 17 1 38 8 45 18 13 15 11
16 -13 11 -20 -4 -28 -1 -28 9 0 7 -10 18 -22 23 -23 10 -23 10 2 7 19 -1 24
2 22 15 -1 9 2 19 8 23 6 3 7 0 4 -9 -3 -9 -1 -16 5 -16 6 0 11 10 11 23 0 20
5 22 52 22 32 0 53 5 55 13 3 6 -2 12 -11 12 -9 0 -16 8 -16 20 0 16 4 18 18
11 9 -5 43 -17 75 -26 53 -16 60 -16 74 -2 14 14 12 17 -22 31 -21 9 -45 16
-55 16 -10 0 -32 3 -49 6 -24 5 -31 12 -31 30 0 20 -5 24 -30 24 -16 0 -30 5
-30 10 0 16 -19 12 -42 -10 -25 -23 -42 -25 -60 -6 -11 11 -16 11 -35 -1 -12
-8 -27 -12 -33 -8 -6 4 -17 1 -25 -5 -11 -9 -15 -9 -15 -1 0 6 -7 11 -16 11
-8 0 -12 5 -9 10 3 6 2 10 -4 10 -23 0 3 28 32 35 35 9 113 16 85 8 -29 -7
-21 -23 12 -23 30 0 43 23 18 33 -7 3 -3 6 9 6 12 1 24 5 27 10 3 5 40 12 82
16 53 5 77 11 81 22 16 41 -67 43 -140 4 -63 -34 -103 -36 -100 -5 2 18 -5 22
-43 28 -42 5 -74 24 -74 42 0 5 5 3 12 -4 7 -7 20 -12 29 -12 10 0 19 -5 21
-11 2 -6 14 -8 31 -4 30 8 37 25 10 25 -9 0 -13 3 -9 7 4 4 27 6 51 4 35 -2
45 1 45 13 0 11 -10 16 -32 17 -31 2 -32 2 -5 6 22 4 27 8 22 23 -5 16 1 20
32 26 25 5 38 3 41 -5 2 -6 17 -11 33 -11 21 0 27 -4 22 -15 -8 -23 26 -44 70
-45 53 0 44 22 -14 35 -34 8 -44 15 -44 30 0 36 16 43 43 18 14 -13 29 -23 33
-23 12 0 11 18 -1 25 -16 10 8 35 32 35 30 0 78 -29 78 -46 0 -13 7 -15 37 -9
20 4 48 15 61 26 16 12 33 17 48 13 33 -8 94 52 94 93 0 41 -25 51 -127 54
-81 2 -90 5 -85 21 4 17 32 46 39 40 2 -2 17 -1 33 3 34 7 36 19 16 67 -16 37
-39 89 -44 101 -2 4 5 7 15 7 22 0 66 41 97 90 15 25 46 47 106 78 129 67 134
70 157 96 11 13 26 25 32 27 13 5 25 110 14 124 -13 18 -134 95 -149 95 -20 0
-28 -21 -13 -31 8 -5 10 -9 5 -9 -5 0 3 -9 18 -21 14 -11 26 -26 26 -32 0 -7
14 -20 30 -29 20 -11 30 -25 30 -41 0 -20 -4 -23 -30 -19 -23 3 -30 0 -30 -12
0 -9 6 -16 13 -16 20 0 -15 -20 -36 -20 -14 0 -17 5 -12 19 5 16 -1 20 -37 26
-24 3 -55 8 -70 11 -21 4 -28 2 -28 -10 0 -9 4 -16 8 -16 5 0 9 -7 9 -15 0 -8
-4 -15 -9 -15 -4 0 -8 4 -8 9 0 5 -6 9 -12 8 -7 0 -24 1 -38 2 l-25 3 25 7
c14 4 25 14 25 23 0 9 4 20 8 24 14 14 7 25 -13 19 -11 -4 -20 -2 -20 4 0 6
-7 11 -15 11 -8 0 -15 5 -15 11 0 6 -9 9 -19 6 -19 -5 -22 7 -8 31 10 15 -3
15 -38 2 -23 -9 -26 -8 -21 5 3 8 1 15 -5 15 -15 0 -24 -33 -11 -38 7 -2 12
-15 12 -29 0 -15 5 -24 13 -21 6 2 25 -9 41 -24 l29 -28 -24 -1 c-13 -1 -30
-1 -36 0 -7 1 -13 -5 -13 -14 0 -17 -11 -20 -26 -5 -8 8 -25 8 -58 0 -26 -6
-51 -8 -55 -6 -4 3 -13 1 -21 -4 -20 -12 -100 29 -100 53 0 16 5 17 33 11 66
-16 82 -12 82 19 1 28 0 29 -37 23 -21 -4 -38 -2 -38 3 0 5 -18 12 -39 16 -37
6 -80 35 -52 35 6 0 11 5 11 10 0 6 -17 10 -37 8 -22 -1 -38 3 -41 10 -2 7
-22 12 -49 12 -36 0 -46 -4 -50 -20 -7 -27 -17 -25 -43 8 -21 25 -21 27 -3 30
42 7 47 12 27 27 -10 8 -31 15 -46 15 -35 0 -58 10 -58 24 0 6 -13 27 -28 46
-24 28 -30 31 -38 18z m566 -458 c0 -6 -13 -13 -29 -16 -20 -4 -31 -14 -35
-30 -4 -14 -18 -29 -31 -34 -34 -13 -31 -24 10 -40 41 -16 47 -40 9 -40 -21 0
-25 -4 -21 -20 6 -23 -12 -26 -46 -9 l-21 12 22 8 c34 13 18 36 -23 31 -26 -3
-37 1 -47 17 -7 12 -23 21 -38 21 -14 0 -32 4 -40 9 -8 6 -19 7 -24 4 -18 -12
-53 -9 -66 6 -12 12 -10 13 12 9 15 -3 53 -1 85 3 32 4 76 4 98 -1 33 -8 43
-6 61 11 11 10 24 19 28 19 4 0 19 11 34 25 27 25 62 34 62 15z m-342 -212
c13 -4 28 0 36 8 24 23 53 17 67 -15 7 -17 22 -33 34 -37 16 -6 12 -8 -17 -11
-21 -2 -38 -8 -38 -14 0 -12 -77 -12 -85 1 -3 6 -15 10 -26 10 -10 0 -19 5
-19 11 0 8 -17 10 -52 6 -33 -3 -46 -2 -33 3 18 8 18 9 2 9 -34 2 -7 20 38 27
25 3 48 11 51 16 4 6 9 7 13 1 3 -6 16 -12 29 -15z m-1179 -2064 c-5 -7 -9
-16 -7 -20 1 -5 -6 -24 -16 -42 -20 -39 -14 -52 16 -33 22 14 22 14 4 -14 -20
-31 -16 -40 15 -30 15 5 18 10 9 15 -9 5 -6 12 11 24 28 19 46 21 51 4 3 -9
20 -9 74 0 92 16 154 21 154 11 0 -4 -15 -9 -32 -11 -39 -4 -35 -24 5 -22 16
1 27 -3 27 -11 0 -11 -89 -32 -114 -26 -22 5 -112 -23 -124 -38 -10 -13 -14
-13 -21 -3 -8 13 -60 12 -160 -4 -38 -6 -42 -9 -38 -30 4 -21 0 -24 -29 -24
-18 0 -39 -3 -48 -6 -12 -4 -16 0 -16 15 0 24 -18 28 -27 6 -5 -13 -8 -12 -20
5 -10 14 -21 19 -32 14 -9 -3 -27 -8 -41 -9 -24 -3 -24 -3 -6 11 19 14 29 16
90 18 23 1 31 7 39 29 6 20 6 32 -2 40 -8 8 -11 8 -11 -1 0 -7 -7 -12 -15 -12
-23 0 -18 17 7 23 27 8 51 -11 45 -34 -5 -19 29 -34 39 -18 3 5 14 9 25 9 11
0 18 4 15 8 -3 5 11 18 32 28 29 15 38 27 40 51 3 28 1 30 -22 26 -13 -3 -26
-14 -29 -24 -3 -10 -11 -19 -17 -19 -7 0 -10 6 -7 13 3 8 2 20 -3 27 -8 13 19
50 33 43 4 -2 13 -1 19 3 7 5 22 9 32 10 11 0 24 8 30 16 7 12 12 13 22 4 8
-7 9 -15 3 -22z m-1689 -523 c4 -19 13 -26 38 -28 22 -3 34 1 38 11 6 16 33
16 89 -2 17 -5 35 -7 42 -5 7 3 20 0 29 -5 11 -6 -9 -12 -73 -20 -127 -17
-186 -18 -191 -4 -6 20 -66 14 -85 -8 -22 -25 -117 -30 -117 -5 0 17 25 20 35
5 11 -18 22 -1 17 26 -4 25 -3 25 34 20 21 -4 35 -3 31 1 -10 9 63 43 88 40
11 -1 22 -12 25 -26z m370 -61 c0 -5 5 -10 11 -10 5 0 7 5 4 10 -3 6 -1 10 4
10 6 0 11 -4 11 -10 0 -5 12 -10 27 -10 14 0 35 -7 45 -17 11 -9 18 -11 18 -5
0 7 5 12 10 12 6 0 10 -13 10 -30 0 -27 -3 -30 -29 -30 -17 0 -32 -4 -36 -10
-3 -5 -31 -9 -63 -8 -31 0 -70 -5 -87 -12 -16 -7 -64 -14 -105 -16 -41 -2 -81
-6 -89 -9 -7 -3 -57 -8 -110 -10 -53 -3 -130 -10 -171 -16 -41 -6 -114 -9
-162 -7 -49 3 -88 2 -88 -1 0 -3 -42 -5 -93 -4 -52 1 -110 -2 -130 -7 -21 -4
-37 -4 -37 0 0 9 36 20 70 20 14 0 45 7 69 16 25 8 59 14 76 13 16 -2 35 0 40
3 11 7 59 16 120 23 91 11 115 18 115 31 0 18 10 18 49 -2 19 -9 39 -13 49 -8
9 4 23 6 30 5 13 -2 28 26 18 36 -3 3 -11 1 -18 -5 -14 -11 -68 -12 -68 -1 0
4 21 9 48 12 154 19 165 20 158 8 -4 -6 -2 -11 3 -11 6 0 11 5 11 11 0 6 12 9
28 7 24 -3 27 -7 24 -36 l-2 -32 42 6 c70 10 107 24 113 45 4 10 13 19 21 19
8 0 14 4 14 9 0 8 16 16 43 20 4 0 7 -3 7 -9z m-1325 -139 c3 -5 -7 -11 -22
-13 -41 -5 -43 -30 -2 -27 19 2 39 6 44 10 16 12 31 -3 37 -34 4 -23 1 -28
-20 -34 -14 -3 -33 -1 -43 6 -24 14 -32 14 -23 0 5 -8 1 -8 -14 0 -25 14 -43
14 -22 1 10 -7 -11 -10 -70 -11 -112 -2 -141 -6 -176 -24 -34 -17 -48 -19 -39
-5 4 7 -2 9 -17 6 -12 -3 -44 -8 -70 -11 -26 -2 -59 -7 -73 -11 -15 -4 -32 -1
-41 7 -13 10 -17 10 -24 -1 -7 -11 -11 -11 -24 -1 -13 11 -16 11 -16 0 0 -12
-2 -11 -9 0 -7 11 -16 12 -43 4 -23 -8 -27 -11 -13 -13 l20 -1 -20 -8 c-11 -5
-30 -4 -43 0 -15 6 -21 5 -17 -1 3 -6 1 -10 -6 -10 -6 0 -9 8 -6 20 3 11 2 18
-1 16 -4 -2 -16 0 -27 5 -15 6 -6 8 30 9 82 1 254 19 272 28 10 5 23 7 30 5 6
-2 36 3 65 12 48 14 54 14 65 0 10 -15 12 -14 18 4 5 16 15 21 40 21 46 0 88
17 80 32 -4 7 1 4 10 -7 14 -17 17 -18 25 -5 8 12 11 11 16 -8 4 -15 12 -21
21 -18 8 3 18 6 23 6 5 0 10 10 12 23 2 12 8 22 15 22 6 0 15 3 19 8 10 10 32
9 39 -2z" />
  </g>
</svg>