<svg xmlns="http://www.w3.org/2000/svg" viewBox="0 0 315.05 361.26" fill="black">
  <title>measure_1</title>
  <g data-name="Warstwa 2">
    <g data-name="Layer 1">
      <path style="fill:#000000;" d="M153.28,68.47c18.2,0,33-15,33-33.48S171.48,1.5,153.28,1.5s-33,15-33,33.49S135.08,68.47,153.28,68.47Zm0-53.58A20.1,20.1,0,1,1,133.48,35,20,20,0,0,1,153.28,14.89Z" />
      <path style="fill:#000000;" d="M153.28,70c-19,0-34.5-15.69-34.5-35s15.47-35,34.5-35,34.51,15.69,34.51,35S172.31,70,153.28,70Zm0-67c-17.37,0-31.5,14.35-31.5,32s14.13,32,31.5,32,31.51-14.35,31.51-32S170.65,3,153.28,3Zm0,53.58A21.6,21.6,0,1,1,174.58,35,21.47,21.47,0,0,1,153.28,56.58Zm0-40.19A18.6,18.6,0,1,0,171.58,35,18.47,18.47,0,0,0,153.28,16.39Z" />
      <path style="fill:#000000;" d="M302.52,88.18c-4.93-8.6-15.08-7.36-23.18-7.36l-94.33,1H121.55l-93.84-.81C17.78,81.05,9,79.59,4,88.18c-4.61,8.07-3.65,20.73,9.4,30.42A7.23,7.23,0,0,0,16.71,120L107,132.73a.07.07,0,0,1,.06.07V336.3A20,20,0,0,0,127,356.46h13.13a19.5,19.5,0,0,0,13.16-5.19.06.06,0,0,1,.08,0,19.5,19.5,0,0,0,13.16,5.19h13.13a20,20,0,0,0,19.88-20.16V132.8a.07.07,0,0,1,.06-.07l86.68-12.49a20.52,20.52,0,0,0,12.4-6.5C306.34,105.1,306.42,95,302.52,88.18Zm-112,5.87,94.22-1c3,0,5.31.06,6.35,1.88,1.57,2.74,1.18,7.38-4.14,11.76a7.35,7.35,0,0,1-3.54,1.55L190,122.89l-.17,0a6.63,6.63,0,0,0-3.51,5.81V336.3a6.72,6.72,0,0,1-6.68,6.76H166.55a6.72,6.72,0,0,1-6.67-6.76V229.55a6.9,6.9,0,0,0-6-7,6.63,6.63,0,0,0-7.18,6.67V336.3a6.72,6.72,0,0,1-6.67,6.76H127a6.71,6.71,0,0,1-6.67-6.76V128.74a6.62,6.62,0,0,0-3.52-5.81l-.63-.12L22.89,108.42a4.54,4.54,0,0,1-2-.79c-6.6-4.85-7.12-9.84-5.47-12.72,1.05-1.82,2.82-1.65,6.85-1.65l93.72.79Z" />
      <path style="fill:#000000;" d="M179.61,358H166.48a21,21,0,0,1-13.2-4.75,21,21,0,0,1-13.2,4.75H127a21.55,21.55,0,0,1-21.38-21.66V134L16.5,121.44a8.6,8.6,0,0,1-3.95-1.64C-1.18,109.61-2.27,96.21,2.74,87.44,7.48,79.18,15.48,79.34,24,79.5c1.23,0,2.48,0,3.75,0l93.86.81H185l94.32-1,2.73,0c7.54-.13,16.94-.28,21.76,8.15h0c3.65,6.39,4.78,17.37-4.07,27.3a22.08,22.08,0,0,1-13.3,7L201,134V336.3A21.55,21.55,0,0,1,179.61,358Zm-26.33-8.19a1.57,1.57,0,0,1,1,.36A18.09,18.09,0,0,0,166.48,355h13.13A18.54,18.54,0,0,0,198,336.3V132.8a1.62,1.62,0,0,1,1.34-1.55L286,118.76a19.06,19.06,0,0,0,11.49-6c7.79-8.74,6.86-18.29,3.7-23.81h0c-3.94-6.89-11.64-6.76-19.1-6.64l-2.77,0-94.31,1H121.55L27.7,82.55c-1.28,0-2.55,0-3.8,0-8.22-.15-14.7-.28-18.56,6.43-4.35,7.61-3.26,19.37,9,28.46a5.73,5.73,0,0,0,2.59,1.08l90.3,12.78a1.61,1.61,0,0,1,1.35,1.55V336.3A18.55,18.55,0,0,0,127,355h13.13a18.05,18.05,0,0,0,12.15-4.8A1.55,1.55,0,0,1,153.28,349.77Zm26.33-5.21H166.55a8.22,8.22,0,0,1-8.17-8.26V229.55a5.39,5.39,0,0,0-4.65-5.52,5,5,0,0,0-3.86,1.31,5.25,5.25,0,0,0-1.69,3.87V336.3a8.22,8.22,0,0,1-8.17,8.26H127a8.22,8.22,0,0,1-8.17-8.26V128.74a5.08,5.08,0,0,0-2.54-4.38l-.38-.07L22.67,109.9a5.91,5.91,0,0,1-2.62-1.06c-7.43-5.45-7.82-11.31-5.89-14.68,1.4-2.42,3.69-2.42,7.2-2.4h.95l93.74.79h74.47l94.21-1c3,0,6.16,0,7.67,2.63,1.79,3.13,1.69,8.58-4.48,13.66a8.82,8.82,0,0,1-4.27,1.89l-93.33,14.65a5.08,5.08,0,0,0-2.53,4.38V336.3A8.23,8.23,0,0,1,179.61,344.56ZM153.27,221l.72,0a8.4,8.4,0,0,1,7.39,8.51V336.3a5.22,5.22,0,0,0,5.17,5.26h13.06a5.22,5.22,0,0,0,5.18-5.26V128.74a8.18,8.18,0,0,1,4.29-7.13,1.62,1.62,0,0,1,.42-.15l.18,0,93.51-14.68a5.78,5.78,0,0,0,2.82-1.23c4.73-3.9,5-7.75,3.79-9.86-.6-1-2.31-1.12-5.05-1.12l-94.21,1H116l-94.68-.79c-3.34,0-4.11.06-4.59.9-1.31,2.28-.77,6.48,5.06,10.76a3.07,3.07,0,0,0,1.3.52l93.24,14.39.68.12a1.79,1.79,0,0,1,.44.16,8.19,8.19,0,0,1,4.3,7.13V336.3a5.22,5.22,0,0,0,5.17,5.26H140a5.22,5.22,0,0,0,5.17-5.26V229.21a8.27,8.27,0,0,1,2.66-6.08A8,8,0,0,1,153.27,221Z" />
      <path style="fill:#000000;" d="M286.7,335.26a9,9,0,0,1-9-9v-1.5a9,9,0,0,1,18,0v1.5A9,9,0,0,1,286.7,335.26Z" />
      <path style="fill:#000000;" d="M286.7,306.6a9,9,0,0,1-9-9v-2.71a9,9,0,0,1,18,0v2.71A9,9,0,0,1,286.7,306.6Zm0-29.87a9,9,0,0,1-9-9V265a9,9,0,0,1,18,0v2.72A9,9,0,0,1,286.7,276.73Zm0-29.88a9,9,0,0,1-9-9v-2.71a9,9,0,1,1,18,0v2.71A9,9,0,0,1,286.7,246.85Zm0-29.88a9,9,0,0,1-9-9v-2.71a9,9,0,0,1,18,0V208A9,9,0,0,1,286.7,217Z" />
      <path style="fill:#000000;" d="M286.7,187.1a9,9,0,0,1-9-9v-1.5a9,9,0,1,1,18,0v1.5A9,9,0,0,1,286.7,187.1Z" />
      <path style="fill:#000000;" d="M306.05,361.26h-40.6a9,9,0,0,1,0-18h40.6a9,9,0,0,1,0,18Z" />
      <path style="fill:#000000;" d="M306.05,156.93h-40.6a9,9,0,0,1,0-18h40.6a9,9,0,0,1,0,18Z" />
    </g>
  </g>
</svg>