<svg xmlns="http://www.w3.org/2000/svg" viewBox="0 0 143.72 187.82"><g data-name="Warstwa 2"><g data-name="Layer 1"><path d="M34.9,74.89h0Zm74.63-.12v.12h1.06A4.66,4.66,0,0,1,109.53,74.77Z"/><path d="M35,76.38h0Zm-.11-1.49h0Zm74.63,1.41h0a.14.14,0,0,1,0,.09h1.09A6.15,6.15,0,0,1,109.53,76.3Zm0-1.53v.12h1.06A4.66,4.66,0,0,1,109.53,74.77ZM35,76.38h0Zm-.11-1.49h0Zm74.63,1.41h0a.14.14,0,0,1,0,.09h1.09A6.15,6.15,0,0,1,109.53,76.3Zm0-1.53v.12h1.06A4.66,4.66,0,0,1,109.53,74.77ZM35,76.38h0Zm74.52-.08h0a.14.14,0,0,1,0,.09h1.09A6.15,6.15,0,0,1,109.53,76.3ZM35,76.38h0Zm74.52-.08h0a.14.14,0,0,1,0,.09h1.09A6.15,6.15,0,0,1,109.53,76.3ZM35,76.38h0Zm74.52-.08h0a.14.14,0,0,1,0,.09h1.09A6.15,6.15,0,0,1,109.53,76.3ZM35,76.38h0Zm74.52-.08h0a.14.14,0,0,1,0,.09h1.09A6.15,6.15,0,0,1,109.53,76.3ZM35,76.38h0Zm-.11-1.49h0Zm74.63,1.41h0a.14.14,0,0,1,0,.09h1.09A6.15,6.15,0,0,1,109.53,76.3Zm0-1.53v.12h1.06A4.66,4.66,0,0,1,109.53,74.77Z"/><path d="M133.14,64.15h-8.61v-19A45.22,45.22,0,0,0,79.36,0H65.18A45.22,45.22,0,0,0,20,45.17v19H10.58C4.75,64.15,0,68.55,0,74V178c0,5.4,4.75,9.79,10.58,9.79H133.14c5.84,0,10.58-4.39,10.58-9.79V74C143.72,68.55,139,64.15,133.14,64.15ZM109.53,74.89v-.12a4.66,4.66,0,0,0,1.06.12Zm1.06,1.5H109.5a.14.14,0,0,0,0-.09h0A6.15,6.15,0,0,0,110.59,76.39ZM35,45.17A30.2,30.2,0,0,1,65.18,15H79.36a30.2,30.2,0,0,1,30.17,30.17v19H35Zm0,29.71h0Zm0,1.5h0Zm94,97.71H14.75V77.89h94.78v-.08a6.15,6.15,0,0,0,1.06.08H129Z"/><path d="M35,74.89h0Z"/><path d="M35,76.38h0Z"/><path d="M110.59,76.39H109.5a.14.14,0,0,0,0-.09h0A6.15,6.15,0,0,0,110.59,76.39Z"/><path d="M110.59,74.89h-1.06v-.12A4.66,4.66,0,0,0,110.59,74.89Z"/><path d="M109.53,77.81v.08h1.06A6.15,6.15,0,0,1,109.53,77.81Zm0,0v.08h1.06A6.15,6.15,0,0,1,109.53,77.81Zm0,0v.08h1.06A6.15,6.15,0,0,1,109.53,77.81Zm0-1.51h0a.14.14,0,0,1,0,.09h1.09A6.15,6.15,0,0,1,109.53,76.3ZM35,76.38h0Zm74.52,1.43v.08h1.06A6.15,6.15,0,0,1,109.53,77.81Zm0,0v.08h1.06A6.15,6.15,0,0,1,109.53,77.81Z"/><path d="M109.53,77.81v.08h1.06A6.15,6.15,0,0,1,109.53,77.81Zm0-1.51v.09h1.06A6.15,6.15,0,0,1,109.53,76.3Zm0-1.53v.12h1.06A4.66,4.66,0,0,1,109.53,74.77ZM34.9,76.39h0Zm0-1.5h0Z"/></g></g></svg>